<svg width="25" height="25" viewBox="0 0 25 25" fill="none" xmlns="http://www.w3.org/2000/svg">
<path d="M14.642 8.15116C14.6721 8.09081 14.6898 8.02499 14.6939 7.95764C14.6979 7.8903 14.6883 7.82283 14.6656 7.7593C14.6429 7.69577 14.6076 7.63749 14.5618 7.58797C14.5159 7.53845 14.4606 7.49871 14.399 7.47116L4.99698 3.27816C3.50098 2.61116 1.94998 4.09316 2.69098 5.48016L5.84298 11.3842C6.08798 11.8442 6.08798 12.3842 5.84298 12.8432L2.69098 18.7472C1.94998 20.1342 3.50098 21.6162 4.99698 20.9492L8.52098 19.3772C8.94409 19.1888 9.2887 18.8593 9.49598 18.4452L14.642 8.15116Z" fill="#000"/>
<path opacity="0.5" d="M16.033 8.72413C16.0904 8.60898 16.19 8.5204 16.3111 8.47682C16.4321 8.43324 16.5654 8.43801 16.683 8.49013L21.506 10.6411C22.83 11.2311 22.83 12.9961 21.506 13.5861L12.608 17.5541C12.5139 17.5958 12.4093 17.6074 12.3084 17.5874C12.2075 17.5674 12.1153 17.5168 12.0442 17.4424C11.9731 17.3681 11.9267 17.2736 11.9113 17.1719C11.8958 17.0702 11.9122 16.9662 11.958 16.8741L16.033 8.72413Z" fill="#000000"/>
</svg>
