<svg width="25" height="24" viewBox="0 0 25 24" fill="none" xmlns="http://www.w3.org/2000/svg">
<g id="icon-park:good-one">
<g id="Vector">
<path d="M18.4557 3.22805L21.1406 12.7281C21.3209 13.3663 20.8414 14 20.1782 14H14.4374C14.0857 14 13.8255 14.3271 13.9045 14.6698L14.1543 15.752C14.3834 16.7447 14.457 17.7669 14.3723 18.7821L14.3264 19.3337C14.2771 19.9253 14.0197 20.4804 13.5998 20.9002C13.2157 21.2842 12.6949 21.5 12.1517 21.5H12.0322C11.7037 21.5 11.4011 21.3219 11.2416 21.0348L9.9125 18.6425C9.31645 17.5696 8.42795 16.688 7.35045 16.1002L4.02115 14.2843C3.69989 14.1091 3.5 13.7723 3.5 13.4064V3.5C3.5 2.9477 3.94771 2.5 4.5 2.5H17.4935C17.941 2.5 18.334 2.79735 18.4557 3.22805Z" fill="#FF2F2F"/>
<path d="M18.4557 3.22805L21.1406 12.7281C21.3209 13.3663 20.8414 14 20.1782 14H14.4374C14.0857 14 13.8255 14.3271 13.9045 14.6698L14.1543 15.752C14.3834 16.7447 14.457 17.7669 14.3723 18.7821L14.3264 19.3337C14.2771 19.9253 14.0197 20.4804 13.5998 20.9002C13.2157 21.2842 12.6949 21.5 12.1517 21.5H12.0322C11.7037 21.5 11.4011 21.3219 11.2416 21.0348L9.9125 18.6425C9.31645 17.5696 8.42795 16.688 7.35045 16.1002L4.02115 14.2843C3.69989 14.1091 3.5 13.7723 3.5 13.4064V3.5C3.5 2.9477 3.94771 2.5 4.5 2.5H17.4935C17.941 2.5 18.334 2.79735 18.4557 3.22805Z" stroke="white" stroke-width="2" stroke-linecap="round" stroke-linejoin="round" style="mix-blend-mode:overlay"/>
</g>
</g>
</svg>
