<svg width="12" height="6" viewBox="0 0 12 6" fill="none" xmlns="http://www.w3.org/2000/svg">
<path id="Vector" d="M11.8574 2.92001C11.8574 3.04359 11.763 3.26223 11.6687 3.28124C11.1309 3.41432 10.9233 3.87061 10.6497 4.25086C10.5082 4.45048 10.0742 5.15393 9.79113 5.66726C7.08328 5.66726 4.01691 5.67676 2.31861 5.67676C1.84686 4.9448 1.29962 4.10827 1.13923 3.87061C0.978835 3.63296 0.790135 3.41432 0.488215 3.32877C0.280644 3.27173 0.148554 3.12914 0.205164 2.901C0.252339 2.67285 0.44104 2.5968 0.64861 2.61581C0.87505 2.62532 1.01657 2.78692 0.98827 3.00556C0.93166 3.34778 1.13923 3.5284 1.35624 3.67099C1.63929 3.86111 1.9129 4.09876 2.24313 4.17481C2.43183 4.22234 2.69601 3.95617 2.77149 3.67099C2.91301 3.13865 2.76205 2.63483 2.62996 2.11199C2.52618 2.07397 2.41296 2.04545 2.31861 1.98842C2.09217 1.85533 2.00725 1.60817 2.11104 1.39904C2.19595 1.20892 2.46013 1.09485 2.70544 1.13287C2.96019 1.1804 3.12058 1.37052 3.09228 1.62719C3.08284 1.72225 3.0451 1.79829 2.96019 1.97891C3.09228 2.2736 3.33759 2.62532 3.52629 2.88198C3.72442 3.14815 3.95086 3.38581 4.25278 3.51889C4.66792 3.69 5.0925 3.55691 5.30007 3.08161C5.54538 2.52075 5.71521 1.93138 5.94165 1.30398C5.80012 1.18991 5.66803 1.12336 5.59255 1.0283C5.41329 0.790653 5.44159 0.543495 5.63973 0.353374C5.83786 0.163253 6.23413 0.144241 6.4417 0.305844C6.67758 0.495965 6.75306 0.800159 6.53605 1.0188C6.49831 1.05682 6.4134 1.18991 6.26244 1.3325C6.31905 1.60817 6.38509 1.89335 6.39453 1.91237C6.55492 2.34014 6.69645 2.79643 6.91345 3.19568C7.1682 3.66148 7.48899 3.71852 7.93243 3.43334C8.47023 3.08161 8.93254 2.65384 9.21559 2.02644C9.17785 1.94089 9.12125 1.86484 9.09294 1.77928C8.95142 1.38953 9.19672 1.07583 9.60243 1.12336C9.8383 1.15188 9.9987 1.27546 10.0553 1.50361C10.1025 1.72225 10.0081 1.90286 9.81944 1.97891C9.7817 1.99792 9.6496 2.08348 9.50808 2.1215C9.45147 2.30212 9.39486 2.49224 9.38542 2.53026C9.31938 2.94853 9.21559 3.3763 9.39486 3.78506C9.51752 4.06074 9.7817 4.18431 10.0647 4.08925C10.4799 3.96567 10.8007 3.68049 11.0743 3.34778C11.1403 3.26223 11.0932 3.09112 11.1215 2.96754C11.1686 2.69186 11.4423 2.51125 11.6687 2.63483C11.7347 2.68236 11.8574 2.82495 11.8574 2.92001Z" fill="#991275"/>
</svg>
