<svg width="25" height="24" viewBox="0 0 25 24" fill="none" xmlns="http://www.w3.org/2000/svg">
<g id="icon-park:good-one">
<g id="Vector">
<path d="M18.4557 20.7719L21.1406 11.2719C21.3209 10.6337 20.8414 10 20.1782 10H14.4374C14.0857 10 13.8255 9.6729 13.9045 9.33025L14.1543 8.24805C14.3834 7.25535 14.457 6.23315 14.3723 5.2179L14.3264 4.66635C14.2771 4.07467 14.0197 3.51963 13.5998 3.0998C13.2157 2.71576 12.6949 2.5 12.1517 2.5H12.0322C11.7037 2.5 11.4011 2.67808 11.2416 2.96521L9.9125 5.35745C9.31645 6.4304 8.42795 7.312 7.35045 7.89975L4.02115 9.71575C3.69989 9.89095 3.5 10.2277 3.5 10.5936V20.5C3.5 21.0523 3.94771 21.5 4.5 21.5H17.4935C17.941 21.5 18.334 21.2027 18.4557 20.7719Z" fill="#33FF2F"/>
<path d="M18.4557 20.7719L21.1406 11.2719C21.3209 10.6337 20.8414 10 20.1782 10H14.4374C14.0857 10 13.8255 9.6729 13.9045 9.33025L14.1543 8.24805C14.3834 7.25535 14.457 6.23315 14.3723 5.2179L14.3264 4.66635C14.2771 4.07467 14.0197 3.51963 13.5998 3.0998C13.2157 2.71576 12.6949 2.5 12.1517 2.5H12.0322C11.7037 2.5 11.4011 2.67808 11.2416 2.96521L9.9125 5.35745C9.31645 6.4304 8.42795 7.312 7.35045 7.89975L4.02115 9.71575C3.69989 9.89095 3.5 10.2277 3.5 10.5936V20.5C3.5 21.0523 3.94771 21.5 4.5 21.5H17.4935C17.941 21.5 18.334 21.2027 18.4557 20.7719Z" stroke="white" stroke-width="2" stroke-linecap="round" stroke-linejoin="round" style="mix-blend-mode:overlay"/>
</g>
</g>
</svg>
