<svg width="100" height="125" viewBox="0 0 100 125" fill="none" xmlns="http://www.w3.org/2000/svg">
<path d="M66.19 18H33.811C29.619 18.0045 25.6001 19.6717 22.6359 22.6359C19.6717 25.6001 18.0045 29.619 18 33.811V66.189C18.0045 70.381 19.6717 74.3999 22.6359 77.3641C25.6001 80.3283 29.619 81.9955 33.811 82H66.19C70.3819 81.9955 74.4007 80.3282 77.3647 77.364C80.3287 74.3998 81.9958 70.3809 82 66.189V33.811C81.9958 29.6191 80.3287 25.6002 77.3647 22.636C74.4007 19.6718 70.3819 18.0045 66.19 18ZM75.925 66.189C75.9221 68.7702 74.8956 71.2448 73.0706 73.0702C71.2456 74.8955 68.7712 75.9226 66.19 75.926H33.811C31.2297 75.9228 28.755 74.8959 26.9298 73.0705C25.1046 71.2452 24.0779 68.7703 24.075 66.189V33.811C24.0779 31.2297 25.1046 28.7549 26.9298 26.9295C28.755 25.1041 31.2297 24.0772 33.811 24.074H66.19C68.7712 24.0774 71.2456 25.1045 73.0706 26.9298C74.8956 28.7552 75.9221 31.2298 75.925 33.811V66.189Z" fill="white"/>
<path d="M50 34.76C46.9858 34.7602 44.0394 35.6542 41.5334 37.3289C39.0273 39.0036 37.0741 41.3838 35.9208 44.1686C34.7675 46.9534 34.4658 50.0176 35.0539 52.9738C35.6421 55.93 37.0936 58.6454 39.225 60.7767C41.3564 62.9079 44.0719 64.3593 47.0282 64.9473C49.9844 65.5352 53.0486 65.2333 55.8333 64.0798C58.618 62.9263 60.9981 60.973 62.6727 58.4668C64.3472 55.9606 65.241 53.0142 65.241 50C65.2365 45.9593 63.6293 42.0854 60.772 39.2283C57.9147 36.3712 54.0407 34.7642 50 34.76ZM50 59.166C48.1872 59.1658 46.4151 58.6281 44.9079 57.6208C43.4007 56.6135 42.226 55.1819 41.5324 53.507C40.8388 51.8321 40.6575 49.9892 41.0112 48.2112C41.365 46.4332 42.2381 44.8001 43.52 43.5183C44.8019 42.2365 46.4352 41.3637 48.2132 41.0101C49.9912 40.6565 51.8341 40.838 53.5089 41.5318C55.1837 42.2256 56.6152 43.4004 57.6223 44.9078C58.6294 46.4151 59.167 48.1872 59.167 50C59.1646 52.4304 58.198 54.7606 56.4793 56.4791C54.7607 58.1975 52.4304 59.1639 50 59.166Z" fill="white"/>
<path d="M65.8649 30.068C65.0603 30.0678 64.2737 30.3062 63.6046 30.7531C62.9355 31.2 62.4139 31.8352 62.1058 32.5785C61.7978 33.3219 61.7171 34.1398 61.8739 34.929C62.0308 35.7182 62.4182 36.4431 62.987 37.0121C63.5559 37.5812 64.2808 37.9687 65.0699 38.1258C65.8591 38.2828 66.677 38.2023 67.4204 37.8944C68.1638 37.5866 68.7992 37.0652 69.2462 36.3962C69.6933 35.7272 69.9319 34.9406 69.9319 34.136C69.9319 33.0573 69.5035 32.0227 68.7408 31.2598C67.9781 30.497 66.9436 30.0683 65.8649 30.068Z" fill="white"/>
</svg>
