<svg width="134" height="64" viewBox="0 0 134 64" fill="none" xmlns="http://www.w3.org/2000/svg">
<g clip-path="url(#clip0_122_830)">
<path d="M39.9859 19.9456V37.4562L33.0592 45.7674V37.3927H27.3919V30.7311H33.0592V26.9245H27.3919V19.9456H39.9859Z" fill="url(#paint0_linear_122_830)"/>
<path d="M25.5028 46.2749V19.9456H18.891V63.5L32.5555 46.2749H25.5028Z" fill="url(#paint1_linear_122_830)"/>
<path d="M6.29699 33.4909L11.7124 55.8867L17.8835 63.4048V19.9456H11.6494V34.0937L6.98966 19.9456H0V41.3897L6.29699 49.003V33.4909Z" fill="url(#paint2_linear_122_830)"/>
<path d="M39.0728 9.60421C39.0728 10.0166 38.758 10.7462 38.4431 10.8096C36.6485 11.2538 35.9558 12.7764 35.0427 14.0453C34.5705 14.7115 33.1222 17.0589 32.1776 18.7719C23.1414 18.7719 12.9088 18.8036 7.24153 18.8036C5.66728 16.361 3.84115 13.5695 3.30591 12.7764C2.77066 11.9834 2.14096 11.2538 1.13344 10.9683C0.440774 10.7779 -1.56611e-05 10.3021 0.188894 9.54076C0.346319 8.77943 0.976018 8.52566 1.66869 8.5891C2.42433 8.62082 2.8966 9.1601 2.80215 9.88971C2.61324 11.0317 3.30591 11.6344 4.03006 12.1102C4.97461 12.7447 5.88767 13.5377 6.98965 13.7915C7.61935 13.9501 8.50092 13.0619 8.7528 12.1102C9.22508 10.3338 8.72132 8.65255 8.28053 6.90783C7.93419 6.78094 7.55638 6.68578 7.24153 6.49545C6.48589 6.05134 6.20252 5.22656 6.54886 4.52868C6.83222 3.89424 7.7138 3.51357 8.53241 3.64046C9.3825 3.79907 9.91775 4.43351 9.82329 5.29001C9.79181 5.60723 9.66587 5.861 9.3825 6.46372C9.82329 7.44711 10.6419 8.62082 11.2716 9.47732C11.9328 10.3655 12.6884 11.1586 13.6959 11.6027C15.0813 12.1737 16.4981 11.7296 17.1908 10.1435C18.0094 8.27188 18.5761 6.30511 19.3318 4.21146C18.8595 3.83079 18.4187 3.60874 18.1668 3.29152C17.5686 2.49847 17.663 1.67369 18.3242 1.03925C18.9854 0.404812 20.3078 0.341368 21.0005 0.880643C21.7876 1.51508 22.0395 2.53019 21.3153 3.2598C21.1894 3.38668 20.906 3.83079 20.4022 4.30662C20.5912 5.22656 20.8115 6.17823 20.843 6.24167C21.3783 7.66916 21.8505 9.19182 22.5747 10.5241C23.4248 12.0785 24.4953 12.2689 25.9751 11.3172C27.7697 10.1435 29.3125 8.71599 30.257 6.62233C30.1311 6.33684 29.9422 6.08306 29.8477 5.79756C29.3755 4.49696 30.1941 3.45013 31.5479 3.60874C32.335 3.70391 32.8703 4.11629 33.0592 4.87762C33.2166 5.60723 32.9018 6.20995 32.2721 6.46372C32.1461 6.52717 31.7053 6.81267 31.2331 6.93955C31.0442 7.54227 30.8552 8.17672 30.8238 8.3036C30.6034 9.69937 30.257 11.1269 30.8552 12.4909C31.2646 13.4109 32.1461 13.8232 33.0907 13.506C34.476 13.0936 35.5465 12.142 36.4596 11.0317C36.68 10.7462 36.5225 10.1752 36.617 9.76282C36.7744 8.84288 37.6875 8.24016 38.4431 8.65255C38.6635 8.81116 39.0728 9.28699 39.0728 9.60421Z" fill="url(#paint3_linear_122_830)"/>
<path d="M47.4793 35.4577L45.1809 30.1919H45.1179V35.4577H43.2603V25.6239H45.2439L46.5977 29.0499H46.6607V25.5922H48.5183V35.426H47.4793V35.4577Z" fill="url(#paint4_linear_122_830)"/>
<path d="M49.3684 35.4577V25.6238H53.6818V27.7175H51.3834V29.4622H53.6504V31.4607H51.3834V33.3323H53.6818V35.5211H49.3684V35.4577Z" fill="url(#paint5_linear_122_830)"/>
<path d="M57.7749 35.4577L57.1137 31.8731H56.9563L56.2636 35.4577H54.1856V35.3942L55.445 30.0332L54.4375 25.6873V25.6238H56.547L57.0507 28.3837H57.2082L57.8064 25.6238H59.7584V25.6873L58.688 30.0015L59.9474 35.3625V35.426H57.7749V35.4577Z" fill="url(#paint6_linear_122_830)"/>
<path d="M61.7735 35.4577V27.6858H60.2307V25.5922H65.3313V27.6858H63.7885V35.4577H61.7735Z" fill="url(#paint7_linear_122_830)"/>
<path d="M68.5112 35.4577V25.6238H70.5263V33.3006H72.6043V35.4894H68.5112V35.4577Z" fill="url(#paint8_linear_122_830)"/>
<path d="M73.234 35.4577V25.6238H77.5474V27.7175H75.249V29.4622H77.516V31.4607H75.249V33.3323H77.5474V35.5211H73.234V35.4577Z" fill="url(#paint9_linear_122_830)"/>
<path d="M79.2476 35.4577L78.0827 25.6238H80.2867L80.8219 32.571H80.9793L81.4831 25.6238H83.6241L82.3961 35.4577H79.2476Z" fill="url(#paint10_linear_122_830)"/>
<path d="M84.2222 35.4577V25.6238H88.5357V27.7175H86.2373V29.4622H88.5042V31.4607H86.2373V33.3323H88.5357V35.5211H84.2222V35.4577Z" fill="url(#paint11_linear_122_830)"/>
<path d="M89.3543 35.4577V25.6238H91.3694V33.3006H93.4474V35.4894H89.3543V35.4577Z" fill="url(#paint12_linear_122_830)"/>
<path d="M96.6273 35.4577V25.6238H100.878V27.7175H98.6424V29.6843H100.846V31.6828H98.6424V35.4894H96.6273V35.4577Z" fill="url(#paint13_linear_122_830)"/>
<path d="M104.719 25.5922H106.734V32.4124C106.734 32.8248 106.703 33.1737 106.671 33.4275C106.64 33.6813 106.608 33.9351 106.577 34.0937C106.545 34.284 106.482 34.4109 106.451 34.5378C106.388 34.6647 106.325 34.7598 106.262 34.8867C106.167 35.0136 106.073 35.1405 105.947 35.2357C105.821 35.3308 105.695 35.3943 105.506 35.4577C105.349 35.5212 105.128 35.5529 104.908 35.5846C104.687 35.6163 104.404 35.6163 104.089 35.6163C103.46 35.6163 102.987 35.5529 102.641 35.4577C102.326 35.3626 102.074 35.1722 101.917 34.8867C101.854 34.7598 101.791 34.6647 101.728 34.5378C101.665 34.4109 101.602 34.284 101.57 34.0937C101.539 33.9033 101.507 33.6813 101.476 33.4275C101.445 33.1737 101.445 32.8248 101.445 32.4124V25.5922H103.523V32.4124C103.523 32.6345 103.523 32.8248 103.554 32.9517C103.554 33.0786 103.585 33.1737 103.648 33.2372C103.68 33.3006 103.743 33.3641 103.837 33.3641C103.9 33.3958 104.026 33.3958 104.152 33.3958C104.278 33.3958 104.373 33.3958 104.467 33.3641C104.53 33.3323 104.593 33.3006 104.656 33.2372C104.687 33.1737 104.719 33.0786 104.75 32.9517C104.75 32.8248 104.782 32.6345 104.782 32.4124V25.5922H104.719Z" fill="url(#paint14_linear_122_830)"/>
<path d="M111.772 35.4577L109.473 30.1919H109.41V35.4577H107.553V25.6239H109.536L110.89 29.0499H110.953V25.5922H112.811V35.426H111.772V35.4577Z" fill="url(#paint15_linear_122_830)"/>
<path d="M113.661 35.4577V25.6238H116.4C117.03 25.6238 117.502 25.6873 117.817 25.8142C118.132 25.9411 118.383 26.1314 118.572 26.4169C118.667 26.5755 118.73 26.7341 118.793 26.8927C118.856 27.0513 118.887 27.3051 118.95 27.5906C118.982 27.8761 119.013 28.2568 119.045 28.7326C119.076 29.2084 119.076 29.8112 119.076 30.5408C119.076 31.3021 119.076 31.9048 119.045 32.3806C119.013 32.8565 119.013 33.2371 118.95 33.5226C118.919 33.8081 118.856 34.0619 118.793 34.2205C118.73 34.3791 118.667 34.5377 118.572 34.6964C118.478 34.855 118.383 34.9818 118.258 35.077C118.132 35.1722 118.006 35.2673 117.817 35.3308C117.659 35.3942 117.439 35.426 117.219 35.4577C116.998 35.4894 116.715 35.4894 116.4 35.4894H113.661V35.4577ZM116.337 33.2689C116.494 33.2689 116.62 33.2371 116.683 33.2054C116.746 33.1737 116.809 33.1102 116.841 33.0151C116.872 32.9516 116.872 32.8882 116.904 32.793C116.935 32.6979 116.935 32.571 116.935 32.4124C116.935 32.222 116.935 32 116.967 31.6828C116.967 31.3655 116.967 30.9849 116.967 30.4773C116.967 29.9698 116.967 29.5574 116.967 29.2402C116.967 28.9229 116.967 28.6692 116.935 28.4788C116.935 28.2885 116.904 28.1616 116.904 28.0664C116.872 27.9713 116.872 27.9078 116.841 27.8444C116.809 27.7809 116.746 27.7175 116.683 27.6858C116.62 27.6541 116.494 27.6223 116.337 27.6223H115.676V33.2371H116.337V33.2689Z" fill="url(#paint16_linear_122_830)"/>
<path d="M119.769 35.4577V25.6238H121.847V35.4577H119.769Z" fill="url(#paint17_linear_122_830)"/>
<path d="M126.979 35.4577L124.68 30.1601H124.617V35.426H122.76V25.5922H124.743L126.097 29.0181H126.16V25.5922H128.018V35.426H126.979V35.4577Z" fill="url(#paint18_linear_122_830)"/>
<path d="M132.142 31.6511H131.198V29.6843H133.968C133.968 29.8429 133.968 30.0967 134 30.4456C134 30.7628 134 31.1752 134 31.6193C134 32.1586 134 32.6027 133.968 32.9517C133.937 33.3006 133.937 33.5861 133.874 33.8399C133.843 34.0619 133.78 34.2523 133.717 34.4109C133.654 34.5695 133.591 34.6964 133.528 34.8233C133.433 34.9819 133.339 35.1088 133.213 35.2039C133.087 35.2991 132.961 35.3943 132.772 35.4577C132.615 35.5211 132.394 35.5529 132.174 35.5846C131.953 35.6163 131.67 35.6163 131.355 35.6163C130.726 35.6163 130.253 35.5529 129.938 35.426C129.624 35.2991 129.372 35.1088 129.183 34.7915C129.088 34.6329 129.025 34.4743 128.962 34.3157C128.899 34.1254 128.868 33.9033 128.805 33.5861C128.742 33.2689 128.742 32.8565 128.71 32.3807C128.679 31.8731 128.679 31.2387 128.679 30.4456C128.679 29.6843 128.679 29.0498 128.71 28.574C128.742 28.0982 128.742 27.7175 128.805 27.4003C128.868 27.0831 128.899 26.861 128.962 26.6707C129.025 26.5121 129.088 26.3218 129.183 26.1949C129.34 25.9094 129.592 25.6873 129.938 25.5921C130.253 25.4653 130.726 25.4335 131.355 25.4335C132.079 25.4335 132.615 25.5287 132.961 25.719C133.307 25.9094 133.591 26.2266 133.717 26.6707C133.843 27.0196 133.874 27.5272 133.874 28.1299C133.874 28.2568 133.874 28.352 133.874 28.4154C133.874 28.4789 133.874 28.5423 133.874 28.6375H131.985C131.985 28.6057 131.985 28.574 131.985 28.5423C131.985 28.5106 131.985 28.4789 131.985 28.4471C131.985 28.2251 131.985 28.0665 131.953 27.9713C131.922 27.8761 131.922 27.781 131.89 27.7175C131.859 27.5589 131.67 27.4637 131.292 27.4637C131.135 27.4637 130.977 27.4955 130.914 27.5272C130.82 27.5589 130.789 27.6224 130.726 27.7175C130.694 27.781 130.694 27.8761 130.663 27.9713C130.631 28.0665 130.631 28.1934 130.631 28.3837C130.631 28.574 130.631 28.8278 130.6 29.145C130.6 29.4622 130.6 29.9063 130.6 30.4456C130.6 31.0166 130.6 31.4607 130.6 31.7779C130.6 32.1269 130.6 32.3807 130.631 32.571C130.631 32.7613 130.663 32.8882 130.663 32.9834C130.663 33.0785 130.694 33.142 130.694 33.2054C130.757 33.3958 130.977 33.4909 131.324 33.4909C131.481 33.4909 131.607 33.4592 131.702 33.4275C131.796 33.3958 131.859 33.3323 131.89 33.2372C131.922 33.2054 131.953 33.142 131.953 33.1103C131.985 33.0785 131.985 33.0151 131.985 32.9199C131.985 32.8565 131.985 32.7296 132.016 32.6344C132.016 32.5076 132.016 32.3489 132.016 32.1586V31.6511H132.142Z" fill="url(#paint19_linear_122_830)"/>
</g>
<defs>
<linearGradient id="paint0_linear_122_830" x1="27.3919" y1="32.8665" x2="39.9859" y2="32.8665" gradientUnits="userSpaceOnUse">
<stop stop-color="#93278F"/>
<stop offset="1" stop-color="#9E005D"/>
</linearGradient>
<linearGradient id="paint1_linear_122_830" x1="18.891" y1="41.7285" x2="32.5704" y2="41.7285" gradientUnits="userSpaceOnUse">
<stop stop-color="#93278F"/>
<stop offset="1" stop-color="#9E005D"/>
</linearGradient>
<linearGradient id="paint2_linear_122_830" x1="0" y1="41.6786" x2="17.8879" y2="41.6786" gradientUnits="userSpaceOnUse">
<stop stop-color="#93278F"/>
<stop offset="1" stop-color="#9E005D"/>
</linearGradient>
<linearGradient id="paint3_linear_122_830" x1="19.6089" y1="0.515869" x2="19.6089" y2="29.5" gradientUnits="userSpaceOnUse">
<stop stop-color="#3658C1"/>
<stop offset="1" stop-color="#961A7F"/>
</linearGradient>
<linearGradient id="paint4_linear_122_830" x1="43.2358" y1="30.5243" x2="48.5286" y2="30.5243" gradientUnits="userSpaceOnUse">
<stop stop-color="#93278F"/>
<stop offset="1" stop-color="#9E005D"/>
</linearGradient>
<linearGradient id="paint5_linear_122_830" x1="49.3805" y1="30.5242" x2="53.7051" y2="30.5242" gradientUnits="userSpaceOnUse">
<stop stop-color="#93278F"/>
<stop offset="1" stop-color="#9E005D"/>
</linearGradient>
<linearGradient id="paint6_linear_122_830" x1="54.1826" y1="30.5242" x2="59.94" y2="30.5242" gradientUnits="userSpaceOnUse">
<stop stop-color="#93278F"/>
<stop offset="1" stop-color="#9E005D"/>
</linearGradient>
<linearGradient id="paint7_linear_122_830" x1="60.237" y1="30.5243" x2="65.336" y2="30.5243" gradientUnits="userSpaceOnUse">
<stop stop-color="#93278F"/>
<stop offset="1" stop-color="#9E005D"/>
</linearGradient>
<linearGradient id="paint8_linear_122_830" x1="68.4986" y1="30.5242" x2="72.6168" y2="30.5242" gradientUnits="userSpaceOnUse">
<stop stop-color="#93278F"/>
<stop offset="1" stop-color="#9E005D"/>
</linearGradient>
<linearGradient id="paint9_linear_122_830" x1="73.2233" y1="30.5242" x2="77.548" y2="30.5242" gradientUnits="userSpaceOnUse">
<stop stop-color="#93278F"/>
<stop offset="1" stop-color="#9E005D"/>
</linearGradient>
<linearGradient id="paint10_linear_122_830" x1="78.0772" y1="30.5242" x2="83.6281" y2="30.5242" gradientUnits="userSpaceOnUse">
<stop stop-color="#93278F"/>
<stop offset="1" stop-color="#9E005D"/>
</linearGradient>
<linearGradient id="paint11_linear_122_830" x1="84.2219" y1="30.5242" x2="88.5463" y2="30.5242" gradientUnits="userSpaceOnUse">
<stop stop-color="#93278F"/>
<stop offset="1" stop-color="#9E005D"/>
</linearGradient>
<linearGradient id="paint12_linear_122_830" x1="89.3598" y1="30.5242" x2="93.4775" y2="30.5242" gradientUnits="userSpaceOnUse">
<stop stop-color="#93278F"/>
<stop offset="1" stop-color="#9E005D"/>
</linearGradient>
<linearGradient id="paint13_linear_122_830" x1="96.6404" y1="30.5242" x2="100.9" y2="30.5242" gradientUnits="userSpaceOnUse">
<stop stop-color="#93278F"/>
<stop offset="1" stop-color="#9E005D"/>
</linearGradient>
<linearGradient id="paint14_linear_122_830" x1="101.481" y1="30.6088" x2="106.748" y2="30.6088" gradientUnits="userSpaceOnUse">
<stop stop-color="#93278F"/>
<stop offset="1" stop-color="#9E005D"/>
</linearGradient>
<linearGradient id="paint15_linear_122_830" x1="107.523" y1="30.5243" x2="112.815" y2="30.5243" gradientUnits="userSpaceOnUse">
<stop stop-color="#93278F"/>
<stop offset="1" stop-color="#9E005D"/>
</linearGradient>
<linearGradient id="paint16_linear_122_830" x1="113.667" y1="30.5242" x2="119.024" y2="30.5242" gradientUnits="userSpaceOnUse">
<stop stop-color="#93278F"/>
<stop offset="1" stop-color="#9E005D"/>
</linearGradient>
<linearGradient id="paint17_linear_122_830" x1="119.773" y1="30.5242" x2="121.852" y2="30.5242" gradientUnits="userSpaceOnUse">
<stop stop-color="#93278F"/>
<stop offset="1" stop-color="#9E005D"/>
</linearGradient>
<linearGradient id="paint18_linear_122_830" x1="122.742" y1="30.5243" x2="128.035" y2="30.5243" gradientUnits="userSpaceOnUse">
<stop stop-color="#93278F"/>
<stop offset="1" stop-color="#9E005D"/>
</linearGradient>
<linearGradient id="paint19_linear_122_830" x1="128.732" y1="30.5243" x2="133.986" y2="30.5243" gradientUnits="userSpaceOnUse">
<stop stop-color="#93278F"/>
<stop offset="1" stop-color="#9E005D"/>
</linearGradient>
<clipPath id="clip0_122_830">
<rect width="134" height="63" fill="white" transform="translate(0 0.5)"/>
</clipPath>
</defs>
</svg>
