<svg width="32" height="33" viewBox="0 0 32 33" fill="none" xmlns="http://www.w3.org/2000/svg">
<g id="mail-02">
<path id="Vector" d="M9.33331 11.4478L13.256 13.767C15.5429 15.1191 16.457 15.1191 18.744 13.767L22.6666 11.4478" stroke="white" stroke-width="1.5" stroke-linecap="round" stroke-linejoin="round"/>
<path id="Vector_2" d="M2.68771 18.0816C2.77487 22.169 2.81846 24.2126 4.32663 25.7266C5.83479 27.2405 7.93379 27.2932 12.1318 27.3986C14.7191 27.4637 17.281 27.4637 19.8683 27.3986C24.0663 27.2932 26.1652 27.2405 27.6735 25.7266C29.1816 24.2126 29.2252 22.169 29.3123 18.0816C29.3404 16.7673 29.3404 15.4609 29.3123 14.1466C29.2252 10.0592 29.1816 8.01555 27.6735 6.50164C26.1652 4.98774 24.0663 4.935 19.8683 4.82952C17.281 4.76451 14.7191 4.76451 12.1318 4.82951C7.93379 4.93498 5.83479 4.98771 4.32662 6.50163C2.81845 8.01554 2.77487 10.0592 2.6877 14.1466C2.65967 15.4609 2.65969 16.7673 2.68771 18.0816Z" stroke="white" stroke-width="1.5" stroke-linejoin="round"/>
</g>
</svg>
