<svg width="32" height="33" viewBox="0 0 32 33" fill="none" xmlns="http://www.w3.org/2000/svg">
<g id="ri:discord-line">
<path id="Vector" d="M11.36 18.5754C9.97334 18.5754 8.84268 17.3154 8.84268 15.7728C8.84268 14.2314 9.94534 12.9728 11.3613 12.9728C12.7613 12.9728 13.908 14.2314 13.88 15.7728C13.88 17.3154 12.7613 18.5754 11.36 18.5754ZM20.6587 18.5754C19.272 18.5754 18.1387 17.3154 18.1387 15.7728C18.1387 14.2314 19.244 12.9728 20.6587 12.9728C22.0587 12.9728 23.2053 14.2314 23.1787 15.7728C23.1787 17.3154 22.0733 18.5754 20.6587 18.5754ZM13.5 5.87811L13.0893 5.12744L12.244 5.26744C10.3282 5.58687 8.46375 6.16084 6.70001 6.97411L6.39601 7.11544L6.20668 7.39411C2.72268 12.5328 1.76668 17.5914 2.24001 22.5621L2.29201 23.1034L2.73201 23.4234C4.7816 24.9273 7.07077 26.0737 9.50268 26.8141L10.556 27.1368L12.04 23.5141C14.5867 24.1434 17.4133 24.1448 19.9587 23.5141L21.4347 27.1381L22.488 26.8141C24.9218 26.0756 27.2122 24.9286 29.2613 23.4221L29.6973 23.1048L29.7507 22.5688C30.332 16.8088 28.8213 11.7901 25.8067 7.38877L25.6173 7.11277L25.3133 6.97411C23.55 6.16455 21.6878 5.59073 19.7747 5.26744L18.9507 5.13011L18.532 5.85144C18.408 6.06714 18.2911 6.28682 18.1813 6.51011C16.735 6.3607 15.2771 6.3607 13.8307 6.51011C13.7245 6.29737 13.6142 6.08667 13.5 5.87811ZM8.95334 22.2608C9.21601 22.4128 9.49334 22.5621 9.76668 22.6981L9.16801 24.1594C7.54881 23.5692 6.01256 22.7724 4.59734 21.7888C4.29734 17.6034 5.14801 13.3821 8.01601 9.02877C9.22635 8.49572 10.488 8.08782 11.7813 7.81144C11.8613 7.97811 11.936 8.14078 11.9973 8.28611L12.3613 9.14344L13.284 9.00877C15.0921 8.74386 16.9292 8.74386 18.7373 9.00877L19.6573 9.14211L20.02 8.28611C20.0827 8.13678 20.156 7.97411 20.2333 7.81144C21.536 8.09144 22.7973 8.50344 24.004 9.03144C26.504 12.7914 27.7653 16.9861 27.3987 21.7874C25.9835 22.7727 24.4462 23.5696 22.8253 24.1581L22.232 22.6994C22.5067 22.5621 22.784 22.4128 23.0493 22.2608C23.7027 21.8848 24.4053 21.4154 24.8533 20.9674L23.1467 19.2608C22.9293 19.4794 22.4493 19.8208 21.844 20.1701C21.252 20.5114 20.664 20.7874 20.288 20.9114C17.6173 21.7954 14.384 21.7954 11.712 20.9114C11.3373 20.7874 10.7493 20.5114 10.1573 20.1701C9.55201 19.8221 9.07201 19.4794 8.85334 19.2608L7.14668 20.9674C7.59601 21.4154 8.30001 21.8848 8.95334 22.2608Z" fill="white"/>
</g>
</svg>
