<?xml version="1.0" encoding="UTF-8"?>
<svg xmlns="http://www.w3.org/2000/svg" xmlns:xlink="http://www.w3.org/1999/xlink" viewBox="0 0 969.66 426.68">
  <defs>
    <style>
      .cls-1 {
        fill: url(#_Безымянный_градиент_3-2);
      }

      .cls-1, .cls-2, .cls-3, .cls-4, .cls-5 {
        mix-blend-mode: multiply;
      }

      .cls-1, .cls-2, .cls-4 {
        opacity: .07;
      }

      .cls-6 {
        fill: #cdb1b0;
      }

      .cls-7 {
        fill: #f8f3f3;
      }

      .cls-8 {
        fill: url(#linear-gradient-2);
      }

      .cls-9 {
        fill: #8d4b4a;
      }

      .cls-10 {
        fill: #a16b69;
      }

      .cls-11 {
        fill: #caabaa;
      }

      .cls-12 {
        fill: #f3ecec;
      }

      .cls-13 {
        fill: #ceb2b1;
      }

      .cls-14 {
        fill: #823b39;
      }

      .cls-15 {
        fill: #f1e9e9;
      }

      .cls-16 {
        fill: #e6d7d7;
      }

      .cls-17 {
        fill: #945655;
      }

      .cls-18 {
        fill: #fff;
      }

      .cls-19 {
        fill: #701e1c;
      }

      .cls-20 {
        fill: #772827;
      }

      .cls-21 {
        fill: url(#linear-gradient-17);
      }

      .cls-22 {
        fill: #cfb4b3;
      }

      .cls-23 {
        fill: #e0cfce;
      }

      .cls-24 {
        fill: #975b5a;
      }

      .cls-25 {
        fill: #732321;
      }

      .cls-26 {
        fill: #a4706f;
      }

      .cls-27 {
        fill: #a57170;
      }

      .cls-28 {
        fill: #fdfcfc;
      }

      .cls-29 {
        fill: #c09c9b;
      }

      .cls-30 {
        fill: url(#_Безымянный_градиент_36);
      }

      .cls-31 {
        fill: #ece0e0;
      }

      .cls-32 {
        fill: #823938;
      }

      .cls-2 {
        fill: url(#_Безымянный_градиент_3-3);
      }

      .cls-33 {
        fill: #eee4e4;
      }

      .cls-34 {
        fill: #915251;
      }

      .cls-35 {
        fill: #782a28;
      }

      .cls-36 {
        fill: #894443;
      }

      .cls-37 {
        fill: #fbf9f9;
      }

      .cls-38 {
        fill: #8b4947;
      }

      .cls-39 {
        fill: #925352;
      }

      .cls-40 {
        fill: #6a1412;
      }

      .cls-41 {
        fill: #7c312f;
      }

      .cls-42 {
        fill: #e1cfcf;
      }

      .cls-43 {
        fill: #90514f;
      }

      .cls-44 {
        fill: #9f6867;
      }

      .cls-45 {
        fill: url(#_Безымянный_градиент_39);
      }

      .cls-45, .cls-46, .cls-47 {
        mix-blend-mode: screen;
      }

      .cls-48 {
        fill: #ebdfdf;
      }

      .cls-49 {
        fill: #f2eaea;
      }

      .cls-50 {
        fill: url(#linear-gradient-15);
      }

      .cls-51 {
        fill: #e4d5d4;
      }

      .cls-52 {
        fill: #efe6e5;
      }

      .cls-53 {
        fill: #d4bbba;
      }

      .cls-54 {
        fill: #742422;
      }

      .cls-55 {
        fill: #6c1715;
      }

      .cls-56 {
        fill: #b18382;
      }

      .cls-46 {
        fill: url(#_Безымянный_градиент_64);
        opacity: .7;
      }

      .cls-57 {
        fill: url(#linear-gradient-18);
      }

      .cls-58 {
        fill: #dcc8c8;
      }

      .cls-59 {
        fill: #d3bab9;
      }

      .cls-60 {
        fill: #d9c4c3;
      }

      .cls-61 {
        fill: #8f4e4c;
      }

      .cls-62 {
        fill: #d6bfbe;
      }

      .cls-63 {
        fill: #be9897;
      }

      .cls-64 {
        fill: #f7f2f2;
      }

      .cls-65 {
        fill: #f9f5f5;
      }

      .cls-66 {
        fill: url(#linear-gradient-14);
      }

      .cls-67 {
        fill: #e0cecd;
      }

      .cls-68 {
        fill: url(#linear-gradient-20);
      }

      .cls-69 {
        fill: url(#linear-gradient-6);
      }

      .cls-70 {
        isolation: isolate;
      }

      .cls-71 {
        fill: #9e6766;
      }

      .cls-72 {
        fill: #d9c3c2;
      }

      .cls-73 {
        fill: #d0b5b4;
      }

      .cls-74 {
        fill: #decbcb;
      }

      .cls-75 {
        fill: #9c6362;
      }

      .cls-76 {
        fill: #e6d8d7;
      }

      .cls-77 {
        fill: #c9aaa9;
      }

      .cls-78 {
        fill: #752524;
      }

      .cls-79 {
        fill: #f2ebeb;
      }

      .cls-80 {
        fill: #f4eded;
      }

      .cls-81 {
        fill: #ede2e2;
      }

      .cls-82 {
        fill: #eee5e5;
      }

      .cls-83 {
        fill: #874240;
      }

      .cls-84 {
        fill: #e1d0d0;
      }

      .cls-85 {
        fill: #fefdfd;
      }

      .cls-86 {
        fill: #a26d6c;
      }

      .cls-87 {
        fill: #894644;
      }

      .cls-88 {
        fill: url(#_Безымянный_градиент_35);
      }

      .cls-89 {
        fill: #b99191;
      }

      .cls-90 {
        fill: #935553;
      }

      .cls-91 {
        fill: #efe6e6;
      }

      .cls-92 {
        fill: #a26c6b;
      }

      .cls-93 {
        fill: url(#linear-gradient-11);
      }

      .cls-94 {
        fill: url(#_Безымянный_градиент_62);
      }

      .cls-95 {
        fill: #b28685;
      }

      .cls-96 {
        fill: #d6bebd;
      }

      .cls-97 {
        fill: #d3b9b8;
      }

      .cls-98 {
        fill: #f4eeed;
      }

      .cls-99 {
        fill: #d1b6b5;
      }

      .cls-100 {
        fill: #dfcdcc;
      }

      .cls-101 {
        fill: #c3a1a0;
      }

      .cls-102 {
        fill: #7e3432;
      }

      .cls-103 {
        fill: #9d6463;
      }

      .cls-104 {
        fill: #ede3e3;
      }

      .cls-105 {
        fill: #ebe0df;
      }

      .cls-106 {
        clip-path: url(#clippath-1);
      }

      .cls-107 {
        fill: #691211;
      }

      .cls-108 {
        fill: #f5efef;
      }

      .cls-109 {
        fill: url(#linear-gradient-10);
      }

      .cls-110 {
        fill: #b68c8b;
      }

      .cls-111 {
        fill: #e7d9d9;
      }

      .cls-112 {
        fill: #f0e8e7;
      }

      .cls-113 {
        fill: #d1b7b6;
      }

      .cls-114 {
        fill: #dfcccb;
      }

      .cls-115 {
        fill: #ddcaca;
      }

      .cls-116 {
        fill: #d7c0bf;
      }

      .cls-117 {
        fill: #965a59;
      }

      .cls-118 {
        fill: #b18584;
      }

      .cls-119 {
        fill: #fcfafa;
      }

      .cls-120 {
        fill: #f4eeee;
      }

      .cls-121 {
        fill: #b08281;
      }

      .cls-122 {
        fill: #aa7a79;
      }

      .cls-123 {
        fill: #eadede;
      }

      .cls-124 {
        fill: #f1e8e8;
      }

      .cls-125 {
        fill: #ba9392;
      }

      .cls-126 {
        fill: #9a605f;
      }

      .cls-127 {
        fill: #dbc6c6;
      }

      .cls-128 {
        fill: #d2b8b7;
      }

      .cls-129 {
        fill: #c5a4a4;
      }

      .cls-130 {
        fill: #faf7f7;
      }

      .cls-131 {
        fill: #d5bdbc;
      }

      .cls-132 {
        fill: #bb9493;
      }

      .cls-133 {
        fill: url(#linear-gradient-16);
      }

      .cls-134 {
        fill: #e3d3d2;
      }

      .cls-135 {
        fill: #f9f6f6;
      }

      .cls-136 {
        fill: #ede3e2;
      }

      .cls-137 {
        fill: #ac7c7b;
      }

      .cls-138 {
        fill: #bc9594;
      }

      .cls-139 {
        fill: #68110f;
      }

      .cls-140 {
        fill: #d4bcbb;
      }

      .cls-141 {
        fill: #e5d5d5;
      }

      .cls-142 {
        fill: #a97776;
      }

      .cls-143 {
        fill: #843e3c;
      }

      .cls-144 {
        fill: #b38786;
      }

      .cls-145 {
        fill: #bf9a9a;
      }

      .cls-146 {
        fill: #bd9796;
      }

      .cls-147 {
        fill: #995e5d;
      }

      .cls-148 {
        fill: #6f1d1b;
      }

      .cls-149 {
        fill: #dac6c5;
      }

      .cls-150 {
        fill: #7f3533;
      }

      .cls-151 {
        fill: #b58a8a;
      }

      .cls-152 {
        fill: url(#linear-gradient-21);
      }

      .cls-153 {
        fill: #e2d2d2;
      }

      .cls-154 {
        fill: #e8dada;
      }

      .cls-155 {
        fill: #86403f;
      }

      .cls-156 {
        fill: #833c3b;
      }

      .cls-157 {
        fill: #c5a3a3;
      }

      .cls-158 {
        fill: #cbadac;
      }

      .cls-159 {
        fill: #fbf8f8;
      }

      .cls-3 {
        opacity: .5;
      }

      .cls-160 {
        fill: #f5f0f0;
      }

      .cls-161 {
        fill: url(#linear-gradient-5);
      }

      .cls-162 {
        fill: #ad7f7e;
      }

      .cls-163 {
        fill: #ccaead;
      }

      .cls-164 {
        fill: #cfb3b2;
      }

      .cls-165 {
        fill: #cdb0af;
      }

      .cls-166 {
        clip-path: url(#clippath);
      }

      .cls-167 {
        fill: #faf6f6;
      }

      .cls-168 {
        fill: #c19e9d;
      }

      .cls-169 {
        fill: #b48887;
      }

      .cls-170 {
        fill: #6b1513;
      }

      .cls-171 {
        fill: #853f3d;
      }

      .cls-172 {
        fill: #8f4f4e;
      }

      .cls-173 {
        fill: none;
      }

      .cls-174 {
        fill: #7b2f2e;
      }

      .cls-175 {
        fill: #9a5f5e;
      }

      .cls-176 {
        fill: #e5d6d6;
      }

      .cls-177 {
        fill: #a77574;
      }

      .cls-178 {
        fill: #6e1a18;
      }

      .cls-179 {
        fill: #c3a09f;
      }

      .cls-180 {
        fill: #caacab;
      }

      .cls-181 {
        fill: url(#linear-gradient-7);
      }

      .cls-182 {
        fill: #e9dddc;
      }

      .cls-183 {
        fill: #9e6664;
      }

      .cls-184 {
        fill: #71201e;
      }

      .cls-185 {
        fill: #f7f3f3;
      }

      .cls-186 {
        fill: #a87675;
      }

      .cls-187 {
        fill: #803735;
      }

      .cls-188 {
        fill: #c4a2a1;
      }

      .cls-189 {
        fill: #985d5b;
      }

      .cls-190 {
        fill: #c8a9a8;
      }

      .cls-191 {
        fill: #f6f1f1;
      }

      .cls-192 {
        fill: #b78e8d;
      }

      .cls-193 {
        fill: #ad7d7c;
      }

      .cls-194 {
        fill: #762725;
      }

      .cls-195 {
        fill: #c19d9c;
      }

      .cls-196 {
        fill: #b48988;
      }

      .cls-197 {
        fill: #af8180;
      }

      .cls-198 {
        fill: url(#linear-gradient-9);
      }

      .cls-199 {
        fill: #792d2b;
      }

      .cls-200 {
        fill: #e3d4d3;
      }

      .cls-201 {
        fill: #a67472;
      }

      .cls-202 {
        fill: #884341;
      }

      .cls-203 {
        fill: #813836;
      }

      .cls-204 {
        fill: #bc9695;
      }

      .cls-205 {
        fill: #fcfbfb;
      }

      .cls-206 {
        fill: #6e1b19;
      }

      .cls-207 {
        fill: url(#linear-gradient-3);
      }

      .cls-208 {
        fill: #660e0c;
      }

      .cls-209 {
        fill: #e9dcdc;
      }

      .cls-210 {
        fill: #9b6260;
      }

      .cls-211 {
        fill: #e2d1d1;
      }

      .cls-212 {
        fill: #7d3231;
      }

      .cls-47 {
        fill: url(#_Безымянный_градиент_65);
      }

      .cls-213 {
        fill: url(#linear-gradient);
      }

      .cls-214 {
        fill: #a36f6d;
      }

      .cls-215 {
        fill: #955756;
      }

      .cls-216 {
        fill: #eadddd;
      }

      .cls-217 {
        fill: #792b29;
      }

      .cls-218 {
        fill: #c6a5a5;
      }

      .cls-219 {
        fill: #6d1816;
      }

      .cls-220 {
        fill: #f0e7e7;
      }

      .cls-221 {
        fill: #e7d9d8;
      }

      .cls-222 {
        fill: #f3eceb;
      }

      .cls-223 {
        fill: #ae807f;
      }

      .cls-224 {
        fill: #aa7877;
      }

      .cls-225 {
        fill: #a06968;
      }

      .cls-226 {
        fill: #ddc9c9;
      }

      .cls-227 {
        fill: #670f0e;
      }

      .cls-228 {
        fill: #a67271;
      }

      .cls-229 {
        fill: #d8c2c1;
      }

      .cls-4 {
        fill: url(#_Безымянный_градиент_3);
      }

      .cls-230 {
        fill: url(#linear-gradient-19);
      }

      .cls-231 {
        fill: #ccafae;
      }

      .cls-232 {
        fill: #fffefe;
      }

      .cls-233 {
        fill: url(#linear-gradient-4);
      }

      .cls-234 {
        fill: #c29f9e;
      }

      .cls-235 {
        fill: #c7a7a6;
      }

      .cls-236 {
        fill: #dcc7c7;
      }

      .cls-237 {
        fill: #f6f1f0;
      }

      .cls-238 {
        fill: #f8f4f4;
      }

      .cls-239 {
        fill: #b88f8e;
      }

      .cls-5 {
        fill: url(#_Безымянный_градиент_52);
        opacity: .8;
      }

      .cls-240 {
        fill: #c8a8a7;
      }

      .cls-241 {
        fill: #b9908f;
      }

      .cls-242 {
        fill: url(#linear-gradient-8);
      }

      .cls-243 {
        fill: #b78d8c;
      }

      .cls-244 {
        fill: #8e4d4b;
      }

      .cls-245 {
        fill: #955957;
      }

      .cls-246 {
        fill: #8c4a48;
      }

      .cls-247 {
        fill: #f1eae9;
      }

      .cls-248 {
        fill: #8a4746;
      }

      .cls-249 {
        fill: #dac5c4;
      }

      .cls-250 {
        fill: #ab7b7a;
      }

      .cls-251 {
        fill: #be9999;
      }

      .cls-252 {
        fill: #fefefe;
      }

      .cls-253 {
        fill: url(#linear-gradient-12);
      }

      .cls-254 {
        fill: #72211f;
      }

      .cls-255 {
        fill: #d8c1c0;
      }

      .cls-256 {
        fill: url(#linear-gradient-13);
      }

      .cls-257 {
        fill: #7a2e2c;
      }

      .cls-258 {
        fill: #fdfbfb;
      }

      .cls-259 {
        fill: #ece1e1;
      }

      .cls-260 {
        fill: #e8dbdb;
      }
    </style>
    <linearGradient id="linear-gradient" x1="68.17" y1="180.78" x2="204.75" y2="57.13" gradientUnits="userSpaceOnUse">
      <stop offset="0" stop-color="#b3b3b3"/>
      <stop offset="1" stop-color="#ccc"/>
    </linearGradient>
    <clipPath id="clippath">
      <rect class="cls-173" x="87.19" y="11.79" width="882.47" height="414.89"/>
    </clipPath>
    <linearGradient id="linear-gradient-2" x1="61.58" y1="1355.77" x2="144.52" y2="1355.77" gradientTransform="translate(206 1580.64) scale(1 -1)" gradientUnits="userSpaceOnUse">
      <stop offset="0" stop-color="#93278f"/>
      <stop offset="1" stop-color="#9e005d"/>
    </linearGradient>
    <linearGradient id="linear-gradient-3" x1="5.6" y1="1297.38" x2="95.69" y2="1297.38" xlink:href="#linear-gradient-2"/>
    <linearGradient id="linear-gradient-4" x1="-118.81" y1="1297.69" x2="-1.04" y2="1297.69" xlink:href="#linear-gradient-2"/>
    <linearGradient id="linear-gradient-5" x1="10.33" y1="1568.75" x2="10.33" y2="1377.87" gradientTransform="translate(206 1580.64) scale(1 -1)" gradientUnits="userSpaceOnUse">
      <stop offset="0" stop-color="#3658c1"/>
      <stop offset="1" stop-color="#961a7f"/>
    </linearGradient>
    <linearGradient id="linear-gradient-6" x1="165.92" y1="1371.12" x2="200.78" y2="1371.12" xlink:href="#linear-gradient-2"/>
    <linearGradient id="linear-gradient-7" x1="206.39" y1="1370.81" x2="234.87" y2="1370.81" xlink:href="#linear-gradient-2"/>
    <linearGradient id="linear-gradient-8" x1="238.04" y1="1371.02" x2="275.98" y2="1371.02" xlink:href="#linear-gradient-2"/>
    <linearGradient id="linear-gradient-9" x1="277.89" y1="1371.12" x2="311.48" y2="1371.12" xlink:href="#linear-gradient-2"/>
    <linearGradient id="linear-gradient-10" x1="332.29" y1="1370.91" x2="359.42" y2="1370.91" xlink:href="#linear-gradient-2"/>
    <linearGradient id="linear-gradient-11" x1="363.41" y1="1370.81" x2="391.89" y2="1370.81" xlink:href="#linear-gradient-2"/>
    <linearGradient id="linear-gradient-12" x1="395.41" y1="1371.02" x2="431.97" y2="1371.02" xlink:href="#linear-gradient-2"/>
    <linearGradient id="linear-gradient-13" x1="435.84" y1="1370.81" x2="464.32" y2="1370.81" xlink:href="#linear-gradient-2"/>
    <linearGradient id="linear-gradient-14" x1="469.68" y1="1370.91" x2="496.8" y2="1370.91" xlink:href="#linear-gradient-2"/>
    <linearGradient id="linear-gradient-15" x1="517.63" y1="1370.91" x2="545.68" y2="1370.91" xlink:href="#linear-gradient-2"/>
    <linearGradient id="linear-gradient-16" x1="549.5" y1="1370.6" x2="584.19" y2="1370.6" xlink:href="#linear-gradient-2"/>
    <linearGradient id="linear-gradient-17" x1="589.29" y1="1371.12" x2="624.14" y2="1371.12" xlink:href="#linear-gradient-2"/>
    <linearGradient id="linear-gradient-18" x1="629.76" y1="1370.91" x2="665.03" y2="1370.91" xlink:href="#linear-gradient-2"/>
    <linearGradient id="linear-gradient-19" x1="669.97" y1="1371.02" x2="683.65" y2="1371.02" xlink:href="#linear-gradient-2"/>
    <linearGradient id="linear-gradient-20" x1="689.52" y1="1371.12" x2="724.38" y2="1371.12" xlink:href="#linear-gradient-2"/>
    <linearGradient id="linear-gradient-21" x1="728.97" y1="1371.12" x2="763.57" y2="1371.12" xlink:href="#linear-gradient-2"/>
    <radialGradient id="_Безымянный_градиент_35" data-name="Безымянный градиент 35" cx="1507.56" cy="24.77" fx="1507.56" fy="24.77" r="103.33" gradientTransform="translate(1360.83 -773.34) rotate(147.12) scale(1 -1)" gradientUnits="userSpaceOnUse">
      <stop offset="0" stop-color="#f0231e"/>
      <stop offset=".19" stop-color="#ea221d"/>
      <stop offset=".43" stop-color="#d91f1a"/>
      <stop offset=".71" stop-color="#be1a16"/>
      <stop offset=".86" stop-color="#ac1814"/>
    </radialGradient>
    <clipPath id="clippath-1">
      <path class="cls-173" d="M148.72,30.91c-18.59-6.61-17.89-15.82-47.33-27.46C87.36-2.1,53.28-4.89,19.15,27.04-2.56,47.34-.1,88.77,.26,99.49c.36,10.72,26,42.43,24.96,57.26-3.2,45.89,14.74,58.39,14.74,58.39l14.31-1.58s-1.72-22.99,7.1-33.07c8.82-10.08,1.19-30.35,1.19-30.35h0c40.93-2.35,60.22-26.21,92.71-59.93l21.74-35.96-5.09-4.38s-6.12-12.88-23.21-18.95Z"/>
    </clipPath>
    <radialGradient id="_Безымянный_градиент_52" data-name="Безымянный градиент 52" cx="1596.92" cy="73.28" fx="1596.92" fy="73.28" r="91.26" gradientTransform="translate(1360.83 -773.34) rotate(147.12) scale(1 -1)" gradientUnits="userSpaceOnUse">
      <stop offset="0" stop-color="#660e0c"/>
      <stop offset=".05" stop-color="#701e1c"/>
      <stop offset=".38" stop-color="#ac7d7c"/>
      <stop offset=".64" stop-color="#d9c3c2"/>
      <stop offset=".82" stop-color="#f4eeee"/>
      <stop offset=".92" stop-color="#fff"/>
    </radialGradient>
    <radialGradient id="_Безымянный_градиент_36" data-name="Безымянный градиент 36" cx="-940.95" cy="-718.47" fx="-940.95" fy="-718.47" r="102" gradientTransform="translate(1287.08 21.76) rotate(-41.08)" gradientUnits="userSpaceOnUse">
      <stop offset=".66" stop-color="#f5f6f7"/>
      <stop offset="1" stop-color="#d9d7d7"/>
    </radialGradient>
    <radialGradient id="_Безымянный_градиент_39" data-name="Безымянный градиент 39" cx="-139.08" cy="-1135.67" fx="-139.08" fy="-1135.67" r="23.35" gradientTransform="translate(858.59 551.63) rotate(-41.49) scale(1.97 .73)" gradientUnits="userSpaceOnUse">
      <stop offset=".05" stop-color="#fff"/>
      <stop offset=".17" stop-color="#dcdcdc"/>
      <stop offset=".43" stop-color="#868686"/>
      <stop offset=".81" stop-color="#000"/>
    </radialGradient>
    <radialGradient id="_Безымянный_градиент_62" data-name="Безымянный градиент 62" cx="442.29" cy="804.46" fx="442.29" fy="804.46" r="37.06" gradientTransform="translate(693.59 -448.03) rotate(-164.63) scale(1 -1)" gradientUnits="userSpaceOnUse">
      <stop offset="0" stop-color="#f1f1f2"/>
      <stop offset=".2" stop-color="#ebebec"/>
      <stop offset=".46" stop-color="#dadadb"/>
      <stop offset=".76" stop-color="#bfbfc0"/>
      <stop offset="1" stop-color="#a4a5a6"/>
    </radialGradient>
    <radialGradient id="_Безымянный_градиент_65" data-name="Безымянный градиент 65" cx="446.02" cy="807.82" fx="446.02" fy="807.82" r="37.06" gradientTransform="translate(693.59 -448.03) rotate(-164.63) scale(1 -1)" gradientUnits="userSpaceOnUse">
      <stop offset=".19" stop-color="#000"/>
      <stop offset=".55" stop-color="#868686"/>
      <stop offset=".81" stop-color="#dcdcdc"/>
      <stop offset=".93" stop-color="#fff"/>
    </radialGradient>
    <radialGradient id="_Безымянный_градиент_64" data-name="Безымянный градиент 64" cx="444.73" cy="810.64" fx="444.73" fy="810.64" r="16.54" gradientTransform="translate(693.59 -448.03) rotate(-164.63) scale(1 -1)" gradientUnits="userSpaceOnUse">
      <stop offset="0" stop-color="#fff"/>
      <stop offset=".09" stop-color="#f9f9f9"/>
      <stop offset=".21" stop-color="#e9e9e9"/>
      <stop offset=".34" stop-color="#cfcfcf"/>
      <stop offset=".47" stop-color="#aaa"/>
      <stop offset=".62" stop-color="#7b7b7b"/>
      <stop offset=".78" stop-color="#414141"/>
      <stop offset=".93" stop-color="#000"/>
    </radialGradient>
    <radialGradient id="_Безымянный_градиент_3" data-name="Безымянный градиент 3" cx="629.38" cy="32.6" fx="629.38" fy="32.6" r="23.96" gradientTransform="translate(1236.27 -546.86) rotate(151.56) scale(1.97 -.73)" gradientUnits="userSpaceOnUse">
      <stop offset="0" stop-color="#000"/>
      <stop offset=".38" stop-color="#868686"/>
      <stop offset=".65" stop-color="#dcdcdc"/>
      <stop offset=".77" stop-color="#fff"/>
    </radialGradient>
    <radialGradient id="_Безымянный_градиент_3-2" data-name="Безымянный градиент 3" cx="645.08" cy="-291.11" fx="645.08" fy="-291.11" r="23.96" gradientTransform="translate(986.37 -755.74) rotate(125.84) scale(1.97 -.73)" xlink:href="#_Безымянный_градиент_3"/>
    <radialGradient id="_Безымянный_градиент_3-3" data-name="Безымянный градиент 3" cx="623.96" cy="165.92" fx="623.96" fy="165.92" r="23.96" gradientTransform="translate(1283.64 -468.85) rotate(160) scale(1.97 -.73)" xlink:href="#_Безымянный_градиент_3"/>
  </defs>
  <g class="cls-70">
    <g id="Layer_1" data-name="Layer 1">
      <path class="cls-213" d="M70.66,167.91s-.24,24.24,9.41,17.41,113.32-95.41,118.09-109.96c4.26-12.99-35.5,1.49-35.5,1.49l-92,91.06Z"/>
      <g class="cls-166">
        <g>
          <path class="cls-8" d="M350.52,139.85v115.32l-45.62,54.73v-55.15h-37.32v-43.87h37.32v-25.07h-37.32v-45.96h82.94Z"/>
          <path class="cls-207" d="M255.14,313.24V139.85h-43.54V426.68l89.99-113.44h-46.45Z"/>
          <path class="cls-233" d="M128.66,229.05l35.66,147.49,40.64,49.51V139.85h-41.06v93.17l-30.69-93.17h-46.03v141.22l41.47,50.14v-102.16Z"/>
          <path class="cls-161" d="M344.51,71.74c0,2.72-2.07,7.52-4.15,7.94-11.82,2.93-16.38,12.95-22.39,21.31-3.11,4.39-12.65,19.85-18.87,31.13-59.51,0-126.9,.21-164.22,.21-10.37-16.09-22.39-34.47-25.92-39.69-3.52-5.22-7.67-10.03-14.31-11.91-4.56-1.25-7.46-4.39-6.22-9.4,1.04-5.01,5.18-6.69,9.75-6.27,4.98,.21,8.09,3.76,7.46,8.57-1.24,7.52,3.32,11.49,8.09,14.62,6.22,4.18,12.23,9.4,19.49,11.07,4.15,1.04,9.95-4.8,11.61-11.07,3.11-11.7-.21-22.77-3.11-34.26-2.28-.84-4.77-1.46-6.84-2.72-4.98-2.92-6.84-8.36-4.56-12.95,1.87-4.18,7.67-6.69,13.06-5.85,5.6,1.04,9.12,5.22,8.5,10.86-.21,2.09-1.04,3.76-2.9,7.73,2.9,6.48,8.29,14.21,12.44,19.85,4.35,5.85,9.33,11.07,15.97,14,9.12,3.76,18.45,.84,23.02-9.61,5.39-12.33,9.12-25.28,14.1-39.07-3.11-2.51-6.01-3.97-7.67-6.06-3.94-5.22-3.32-10.65,1.04-14.83,4.35-4.18,13.06-4.6,17.63-1.04,5.18,4.18,6.84,10.86,2.07,15.67-.83,.84-2.7,3.76-6.01,6.89,1.24,6.06,2.7,12.33,2.9,12.74,3.53,9.4,6.63,19.43,11.4,28.2,5.6,10.24,12.65,11.49,22.39,5.22,11.82-7.73,21.98-17.13,28.2-30.92-.83-1.88-2.07-3.55-2.7-5.43-3.11-8.57,2.28-15.46,11.2-14.41,5.18,.63,8.71,3.34,9.95,8.36,1.04,4.8-1.04,8.77-5.18,10.45-.83,.42-3.73,2.3-6.84,3.13-1.24,3.97-2.49,8.15-2.7,8.98-1.45,9.19-3.73,18.59,.21,27.58,2.7,6.06,8.5,8.77,14.72,6.69,9.12-2.72,16.17-8.98,22.19-16.29,1.45-1.88,.41-5.64,1.04-8.36,1.04-6.06,7.05-10.03,12.03-7.31,1.45,1.04,4.15,4.18,4.15,6.27Z"/>
          <path class="cls-69" d="M399.87,242l-15.14-34.68h-.41v34.68h-12.23v-64.76h13.06l8.92,22.56h.41v-22.77h12.23v64.76h-6.84v.21Z"/>
          <path class="cls-181" d="M412.31,242v-64.76h28.41v13.79h-15.14v11.49h14.93v13.16h-14.93v12.33h15.14v14.41h-28.41v-.42Z"/>
          <path class="cls-242" d="M467.67,242l-4.35-23.61h-1.04l-4.56,23.61h-13.68v-.42l8.29-35.31-6.63-28.62v-.42h13.89l3.32,18.18h1.04l3.94-18.18h12.86v.42l-7.05,28.41,8.29,35.31v.42h-14.31v.21Z"/>
          <path class="cls-198" d="M494.01,242v-51.18h-10.16v-13.79h33.59v13.79h-10.16v51.18h-13.27Z"/>
          <path class="cls-109" d="M538.38,242v-64.76h13.27v50.56h13.68v14.41h-26.96v-.21Z"/>
          <path class="cls-93" d="M569.48,242v-64.76h28.41v13.79h-15.14v11.49h14.93v13.16h-14.93v12.33h15.14v14.41h-28.41v-.42Z"/>
          <path class="cls-253" d="M609.08,242l-7.67-64.76h14.51l3.52,45.75h1.04l3.32-45.75h14.1l-8.09,64.76h-20.73Z"/>
          <path class="cls-256" d="M641.84,242v-64.76h28.41v13.79h-15.14v11.49h14.93v13.16h-14.93v12.33h15.14v14.41h-28.41v-.42Z"/>
          <path class="cls-66" d="M675.64,242v-64.76h13.27v50.56h13.68v14.41h-26.96v-.21Z"/>
          <path class="cls-50" d="M723.54,242v-64.76h27.99v13.79h-14.72v12.95h14.51v13.16h-14.51v25.07h-13.27v-.21Z"/>
          <path class="cls-133" d="M776.83,177.03h13.27v44.92c0,2.72-.2,5.01-.41,6.69-.2,1.67-.41,3.34-.62,4.39-.21,1.25-.63,2.09-.83,2.92-.41,.84-.83,1.46-1.24,2.3-.63,.84-1.24,1.67-2.07,2.3-.83,.63-1.66,1.04-2.9,1.46-1.03,.42-2.49,.63-3.94,.84-1.46,.21-3.32,.21-5.39,.21-4.14,0-7.26-.42-9.54-1.04-2.07-.63-3.73-1.88-4.77-3.76-.41-.84-.83-1.46-1.24-2.3-.41-.84-.83-1.67-1.04-2.92-.2-1.25-.41-2.72-.62-4.39-.2-1.67-.2-3.97-.2-6.69v-44.92h13.68v44.92c0,1.46,0,2.72,.2,3.55,0,.84,.2,1.46,.62,1.88,.21,.42,.63,.84,1.24,.84,.41,.21,1.24,.21,2.07,.21s1.46,0,2.07-.21c.41-.21,.83-.42,1.24-.84,.2-.42,.41-1.04,.62-1.88,0-.84,.21-2.09,.21-3.55v-44.92h-.41Z"/>
          <path class="cls-21" d="M823.28,242l-15.14-34.68h-.41v34.68h-12.23v-64.76h13.06l8.92,22.56h.41v-22.77h12.24v64.76h-6.84v.21Z"/>
          <path class="cls-57" d="M835.72,242v-64.76h18.04c4.15,0,7.26,.42,9.33,1.25s3.73,2.09,4.97,3.97c.63,1.04,1.04,2.09,1.46,3.13,.41,1.04,.62,2.72,1.03,4.6,.21,1.88,.41,4.39,.63,7.52,.2,3.13,.2,7.1,.2,11.91s0,8.98-.2,12.12c-.21,3.13-.21,5.64-.63,7.52-.2,1.88-.62,3.55-1.03,4.6-.41,1.04-.83,2.09-1.46,3.13-.62,1.04-1.24,1.88-2.07,2.51-.83,.63-1.66,1.25-2.9,1.67-1.04,.42-2.49,.63-3.94,.84-1.46,.21-3.32,.21-5.39,.21h-18.04v-.21Zm17.62-14.41c1.03,0,1.86-.21,2.28-.42,.41-.21,.83-.63,1.04-1.25,.2-.42,.2-.84,.41-1.46,.2-.63,.2-1.46,.2-2.51,0-1.25,0-2.72,.21-4.8v-16.09c0-2.09,0-3.76-.21-5.01,0-1.25-.2-2.09-.2-2.72-.21-.63-.21-1.04-.41-1.46-.21-.42-.63-.84-1.04-1.04-.41-.21-1.24-.42-2.28-.42h-4.35v36.98h4.35v.21Z"/>
          <path class="cls-230" d="M875.94,242v-64.76h13.68v64.76h-13.68Z"/>
          <path class="cls-68" d="M923.42,242l-15.14-34.89h-.41v34.68h-12.23v-64.76h13.06l8.92,22.56h.41v-22.56h12.24v64.76h-6.84v.21Z"/>
          <path class="cls-152" d="M957.42,216.93h-6.22v-12.95h18.24c0,1.04,0,2.72,.21,5.01v7.73c0,3.55,0,6.48-.21,8.77-.2,2.3-.2,4.18-.62,5.85-.2,1.46-.62,2.72-1.03,3.76-.41,1.04-.83,1.88-1.24,2.72-.63,1.04-1.24,1.88-2.07,2.51-.83,.63-1.66,1.25-2.9,1.67-1.03,.42-2.49,.63-3.94,.84-1.46,.21-3.32,.21-5.39,.21-4.14,0-7.26-.42-9.33-1.25-2.07-.84-3.73-2.09-4.97-4.18-.63-1.04-1.04-2.09-1.46-3.13-.41-1.25-.62-2.72-1.03-4.8-.41-2.09-.41-4.8-.63-7.94-.2-3.34-.2-7.52-.2-12.74s0-9.19,.2-12.33c.21-3.13,.21-5.64,.63-7.73,.41-2.09,.62-3.55,1.03-4.8,.41-1.04,.83-2.3,1.46-3.13,1.03-1.88,2.69-3.34,4.97-3.97,2.07-.84,5.19-1.04,9.33-1.04,4.77,0,8.3,.63,10.58,1.88,2.28,1.25,4.15,3.34,4.98,6.27,.83,2.3,1.03,5.64,1.03,9.61v3.34h-12.44v-1.25c0-1.46,0-2.51-.21-3.13-.2-.63-.2-1.25-.41-1.67-.2-1.04-1.45-1.67-3.94-1.67-1.03,0-2.07,.21-2.49,.42-.62,.21-.82,.63-1.24,1.25-.21,.42-.21,1.04-.41,1.67-.21,.63-.21,1.46-.21,2.72s0,2.92-.2,5.01v17.34c0,2.3,0,3.97,.2,5.22,0,1.25,.21,2.09,.21,2.72s.2,1.04,.2,1.46c.41,1.25,1.86,1.88,4.15,1.88,1.03,0,1.86-.21,2.49-.42,.62-.21,1.03-.63,1.24-1.25,.21-.21,.41-.63,.41-.84,.21-.21,.21-.63,.21-1.25,0-.42,0-1.25,.2-1.88v-6.48h.83Z"/>
        </g>
      </g>
      <g>
        <path class="cls-88" d="M148.72,30.91c-18.59-6.61-17.89-15.82-47.33-27.46C87.36-2.1,53.28-4.89,19.15,27.04-2.56,47.34-.1,88.77,.26,99.49c.36,10.72,26,42.43,24.96,57.26-3.2,45.89,14.74,58.39,14.74,58.39l14.31-1.58s-1.72-22.99,7.1-33.07c8.82-10.08,1.19-30.35,1.19-30.35h0c40.93-2.35,60.22-26.21,92.71-59.93l21.74-35.96-5.09-4.38s-6.12-12.88-23.21-18.95Z"/>
        <path class="cls-88" d="M148.72,30.91c-18.59-6.61-17.89-15.82-47.33-27.46C87.36-2.1,53.28-4.89,19.15,27.04-2.56,47.34-.1,88.77,.26,99.49c.36,10.72,26,42.43,24.96,57.26-3.2,45.89,14.74,58.39,14.74,58.39l14.31-1.58s-1.72-22.99,7.1-33.07c8.82-10.08,1.19-30.35,1.19-30.35h0c40.93-2.35,60.22-26.21,92.71-59.93l21.74-35.96-5.09-4.38s-6.12-12.88-23.21-18.95Z"/>
        <g class="cls-3">
          <g class="cls-106">
            <path class="cls-18" d="M31.59,212.05c.64,4.79,1.57,9.31,2.71,13.38l.86-.56,1.04,1.61,15.48-10.01,3.95,6.11c.03-4.23-.25-8.83-.89-13.62-2.55-19.16-9.8-33.99-16.19-33.14-6.39,.85-9.5,17.07-6.95,36.23Z"/>
            <path class="cls-18" d="M31.64,212.04c.64,4.77,1.56,9.27,2.7,13.32l.81-.52,1.06,1.63,15.46-10,3.91,6.05c.03-4.21-.25-8.8-.89-13.56-2.54-19.08-9.76-33.85-16.13-33.01-6.37,.85-9.46,17-6.92,36.08Z"/>
            <path class="cls-18" d="M31.69,212.03c.63,4.75,1.56,9.23,2.69,13.27l.75-.49,1.07,1.66,15.45-9.99,3.87,5.99c.03-4.19-.25-8.76-.88-13.51-2.53-19-9.72-33.71-16.06-32.87-6.34,.84-9.43,16.93-6.89,35.93Z"/>
            <path class="cls-18" d="M31.74,212.03c.63,4.73,1.55,9.19,2.67,13.21l.7-.45,1.09,1.69,15.44-9.98,3.84,5.94c.03-4.18-.25-8.72-.88-13.45-2.52-18.92-9.68-33.57-15.99-32.73-6.31,.84-9.39,16.86-6.87,35.78Z"/>
            <path class="cls-232" d="M31.78,212.02c.63,4.71,1.54,9.15,2.66,13.16l.65-.42,1.11,1.71,15.42-9.97,3.8,5.88c.03-4.16-.25-8.69-.88-13.4-2.51-18.84-9.64-33.43-15.93-32.6-6.29,.84-9.35,16.79-6.84,35.63Z"/>
            <path class="cls-232" d="M31.83,212.02c.62,4.69,1.54,9.12,2.65,13.1l.59-.38,1.13,1.74,15.41-9.96,3.76,5.82c.03-4.14-.25-8.65-.87-13.34-2.5-18.76-9.6-33.29-15.86-32.46-6.26,.83-9.31,16.72-6.81,35.48Z"/>
            <path class="cls-252" d="M31.88,212.01c.62,4.67,1.53,9.08,2.64,13.05l.54-.35,1.14,1.77,15.39-9.95,3.72,5.76c.03-4.12-.24-8.61-.87-13.29-2.49-18.68-9.56-33.15-15.79-32.32-6.23,.83-9.27,16.65-6.78,35.33Z"/>
            <path class="cls-252" d="M31.93,212c.62,4.65,1.52,9.04,2.63,12.99l.48-.31,1.16,1.79,15.38-9.94,3.69,5.7c.03-4.11-.24-8.58-.86-13.23-2.48-18.6-9.52-33.01-15.73-32.19-6.21,.83-9.23,16.58-6.75,35.18Z"/>
            <path class="cls-252" d="M31.97,212c.62,4.63,1.52,9,2.62,12.94l.43-.28,1.18,1.82,15.37-9.93,3.65,5.64c.03-4.09-.24-8.54-.86-13.17-2.47-18.52-9.48-32.87-15.66-32.05-6.18,.82-9.19,16.51-6.72,35.03Z"/>
            <path class="cls-85" d="M32.02,211.99c.61,4.61,1.51,8.96,2.61,12.88l.38-.24,1.19,1.85,15.35-9.93,3.61,5.59c.03-4.07-.24-8.51-.86-13.12-2.46-18.45-9.44-32.73-15.59-31.91-6.15,.82-9.15,16.44-6.69,34.88Z"/>
            <path class="cls-85" d="M32.07,211.98c.61,4.59,1.51,8.93,2.6,12.83l.32-.21,1.21,1.87,15.34-9.92,3.57,5.53c.03-4.05-.24-8.47-.85-13.06-2.45-18.37-9.4-32.59-15.53-31.78-6.13,.82-9.11,16.37-6.67,34.73Z"/>
            <path class="cls-85" d="M32.12,211.98c.61,4.57,1.5,8.89,2.59,12.77l.27-.17,1.23,1.9,15.33-9.91,3.54,5.47c.03-4.04-.24-8.43-.85-13.01-2.44-18.29-9.36-32.45-15.46-31.64-6.1,.81-9.07,16.3-6.64,34.59Z"/>
            <path class="cls-28" d="M32.16,211.97c.61,4.55,1.49,8.85,2.58,12.72l.21-.14,1.25,1.93,15.31-9.9,3.5,5.41c.03-4.02-.24-8.4-.85-12.95-2.43-18.21-9.32-32.31-15.39-31.5-6.08,.81-9.03,16.23-6.61,34.44Z"/>
            <path class="cls-28" d="M32.21,211.97c.6,4.53,1.49,8.81,2.56,12.66l.16-.1,1.26,1.95,15.3-9.89,3.46,5.35c.03-4-.24-8.36-.84-12.89-2.42-18.13-9.28-32.17-15.33-31.37-6.05,.81-8.99,16.16-6.58,34.29Z"/>
            <path class="cls-28" d="M32.26,211.96c.6,4.51,1.48,8.77,2.55,12.61l.11-.07,1.28,1.98,15.29-9.88,3.42,5.29c.03-3.98-.24-8.32-.84-12.84-2.41-18.05-9.24-32.03-15.26-31.23-6.02,.8-8.96,16.09-6.55,34.14Z"/>
            <path class="cls-258" d="M32.31,211.95c.6,4.49,1.47,8.73,2.54,12.55l.05-.04,1.3,2.01,15.27-9.87,3.38,5.23c.03-3.97-.24-8.29-.83-12.78-2.4-17.97-9.2-31.89-15.2-31.1-6,.8-8.92,16.02-6.52,33.99Z"/>
            <path class="cls-205" d="M32.36,211.95c.6,4.47,1.47,8.69,2.53,12.5h0s1.32,2.03,1.32,2.03l15.26-9.86,3.35,5.18c.03-3.95-.23-8.25-.83-12.72-2.38-17.89-9.16-31.76-15.13-30.96-5.97,.8-8.88,15.95-6.49,33.84Z"/>
            <path class="cls-119" d="M32.4,211.94c.59,4.45,1.46,8.66,2.52,12.44,.53,1.89,1.11,3.68,1.72,5.35l-.44-3.25,15.25-9.86,3.31,5.12c.03-3.93-.23-8.22-.83-12.67-2.37-17.82-9.12-31.61-15.06-30.82s-8.84,15.88-6.46,33.69Z"/>
            <path class="cls-119" d="M32.45,211.93c.59,4.43,1.45,8.62,2.51,12.39,.53,1.88,1.1,3.67,1.71,5.32l-.47-3.17,15.23-9.85,3.27,5.06c.03-3.91-.23-8.18-.82-12.61-2.36-17.74-9.08-31.47-14.99-30.69-5.92,.79-8.8,15.81-6.44,33.54Z"/>
            <path class="cls-119" d="M32.5,211.93c.59,4.41,1.45,8.58,2.5,12.33,.52,1.88,1.1,3.65,1.71,5.3l-.5-3.08,15.22-9.84,3.23,5c.03-3.9-.23-8.14-.82-12.56-2.35-17.66-9.04-31.34-14.93-30.55-5.89,.79-8.76,15.74-6.41,33.39Z"/>
            <path class="cls-37" d="M32.55,211.92c.59,4.39,1.44,8.54,2.49,12.28,.52,1.87,1.09,3.63,1.7,5.28l-.53-3,15.21-9.83,3.2,4.94c.03-3.88-.23-8.11-.82-12.5-2.34-17.58-9-31.2-14.86-30.41-5.87,.78-8.72,15.67-6.38,33.24Z"/>
            <path class="cls-37" d="M32.59,211.91c.58,4.38,1.43,8.5,2.47,12.22,.52,1.86,1.09,3.62,1.69,5.25l-.56-2.91,15.19-9.82,3.16,4.88c.03-3.86-.23-8.07-.81-12.44-2.33-17.5-8.96-31.06-14.79-30.28-5.84,.78-8.68,15.6-6.35,33.1Z"/>
            <path class="cls-159" d="M32.64,211.91c.58,4.36,1.43,8.47,2.46,12.17,.52,1.85,1.08,3.6,1.68,5.23l-.59-2.83,15.18-9.81,3.12,4.82c.03-3.84-.23-8.03-.81-12.39-2.32-17.42-8.92-30.92-14.73-30.14-5.81,.78-8.64,15.53-6.32,32.95Z"/>
            <path class="cls-159" d="M32.69,211.9c.58,4.34,1.42,8.43,2.45,12.11,.52,1.84,1.08,3.59,1.68,5.21l-.62-2.74,15.17-9.8,3.08,4.77c.03-3.83-.23-8-.81-12.33-2.31-17.34-8.88-30.78-14.66-30-5.79,.77-8.6,15.45-6.29,32.8Z"/>
            <path class="cls-130" d="M32.74,211.9c.58,4.32,1.41,8.39,2.44,12.06,.51,1.83,1.07,3.57,1.67,5.18l-.64-2.66,15.15-9.8,3.04,4.71c.03-3.81-.23-7.96-.8-12.28-2.3-17.26-8.83-30.64-14.6-29.87-5.76,.77-8.56,15.38-6.26,32.65Z"/>
            <path class="cls-130" d="M32.78,211.89c1.14,8.59,3.34,16.22,5.97,21.6l-2.55-7.01,15.14-9.79,3.01,4.65c.03-3.79-.23-7.92-.8-12.22-2.29-17.18-8.79-30.5-14.53-29.73-5.73,.76-8.53,15.31-6.24,32.5Z"/>
            <path class="cls-167" d="M32.83,211.88c1.14,8.55,3.33,16.14,5.94,21.5l-2.58-6.9,15.13-9.78,2.97,4.59c.03-3.78-.22-7.89-.79-12.16-2.28-17.11-8.75-30.36-14.46-29.6-5.71,.76-8.49,15.24-6.21,32.35Z"/>
            <path class="cls-135" d="M32.88,211.88c1.13,8.51,3.31,16.07,5.92,21.4l-2.59-6.8,15.11-9.77,2.93,4.53c.03-3.76-.22-7.85-.79-12.11-2.27-17.03-8.71-30.22-14.39-29.46-5.68,.76-8.45,15.17-6.18,32.2Z"/>
            <path class="cls-65" d="M32.93,211.87c1.13,8.47,3.3,15.99,5.89,21.3l-2.62-6.69,15.1-9.76,2.89,4.47c.03-3.74-.22-7.82-.79-12.05-2.26-16.95-8.67-30.08-14.33-29.32-5.65,.75-8.41,15.1-6.15,32.05Z"/>
            <path class="cls-65" d="M32.97,211.86c1.12,8.43,3.28,15.92,5.86,21.2l-2.64-6.59,15.08-9.75,2.85,4.42c.03-3.72-.22-7.78-.78-12-2.25-16.87-8.63-29.94-14.26-29.19-5.63,.75-8.37,15.03-6.12,31.9Z"/>
            <path class="cls-238" d="M33.02,211.86c1.12,8.4,3.27,15.84,5.84,21.1l-2.66-6.48,15.07-9.74,2.82,4.36c.03-3.71-.22-7.74-.78-11.94-2.24-16.79-8.59-29.8-14.2-29.05-5.6,.75-8.33,14.96-6.09,31.75Z"/>
            <path class="cls-238" d="M33.07,211.85c1.11,8.36,3.25,15.77,5.81,21l-2.68-6.37,15.06-9.73,2.78,4.3c.03-3.69-.22-7.71-.78-11.88-2.23-16.71-8.55-29.66-14.13-28.91-5.58,.74-8.29,14.89-6.06,31.6Z"/>
            <path class="cls-7" d="M33.12,211.84c1.11,8.32,3.24,15.7,5.78,20.9l-2.7-6.27,15.04-9.73,2.74,4.24c.03-3.67-.22-7.67-.77-11.83-2.22-16.63-8.51-29.52-14.06-28.78-5.55,.74-8.25,14.82-6.04,31.46Z"/>
            <path class="cls-185" d="M33.16,211.84c1.1,8.28,3.22,15.62,5.75,20.8l-2.72-6.16,15.03-9.72,2.7,4.18c.03-3.65-.22-7.63-.77-11.77-2.21-16.55-8.47-29.38-13.99-28.64-5.52,.74-8.21,14.75-6.01,31.31Z"/>
            <path class="cls-64" d="M33.21,211.83c1.1,8.24,3.21,15.55,5.73,20.7l-2.74-6.06,15.02-9.71,2.67,4.12c.03-3.64-.22-7.6-.77-11.72-2.2-16.48-8.43-29.24-13.93-28.5-5.5,.73-8.17,14.68-5.98,31.16Z"/>
            <path class="cls-64" d="M33.26,211.83c1.09,8.2,3.19,15.47,5.7,20.61l-2.76-5.95,15-9.7,2.63,4.06c.03-3.62-.22-7.56-.76-11.66-2.18-16.4-8.39-29.1-13.86-28.37-5.47,.73-8.13,14.61-5.95,31.01Z"/>
            <path class="cls-191" d="M33.31,211.82c1.09,8.16,3.17,15.4,5.67,20.51l-2.78-5.85,14.99-9.69,2.59,4.01c.03-3.6-.21-7.52-.76-11.6-2.17-16.32-8.35-28.96-13.8-28.23-5.44,.73-8.1,14.54-5.92,30.86Z"/>
            <path class="cls-237" d="M33.36,211.81c1.08,8.12,3.16,15.32,5.64,20.41l-2.8-5.74,14.98-9.68,2.55,3.95c.03-3.58-.21-7.49-.75-11.55-2.16-16.24-8.31-28.82-13.73-28.1-5.42,.72-8.06,14.47-5.89,30.71Z"/>
            <path class="cls-160" d="M33.4,211.81c1.08,8.08,3.14,15.25,5.62,20.31l-2.82-5.64,14.96-9.67,2.51,3.89c.03-3.57-.21-7.45-.75-11.49-2.15-16.16-8.27-28.68-13.66-27.96-5.39,.72-8.02,14.4-5.86,30.56Z"/>
            <path class="cls-108" d="M33.45,211.8c1.07,8.04,3.13,15.17,5.59,20.21l-2.84-5.53,14.95-9.66,2.48,3.83c.03-3.55-.21-7.41-.75-11.43-2.14-16.08-8.23-28.54-13.6-27.82-5.36,.71-7.98,14.33-5.84,30.41Z"/>
            <path class="cls-108" d="M33.5,211.79c1.07,8,3.11,15.1,5.56,20.11l-2.86-5.43,14.94-9.66,2.44,3.77c.03-3.53-.21-7.38-.74-11.38-2.13-16-8.19-28.4-13.53-27.69-5.34,.71-7.94,14.26-5.81,30.26Z"/>
            <path class="cls-120" d="M33.55,211.79c1.06,7.96,3.1,15.03,5.53,20.01l-2.88-5.32,14.92-9.65,2.4,3.72c.03-3.51-.21-7.34-.74-11.32-2.12-15.92-8.15-28.26-13.46-27.55-5.31,.71-7.9,14.19-5.78,30.11Z"/>
            <path class="cls-98" d="M33.59,211.78c1.06,7.92,3.08,14.95,5.51,19.91l-2.9-5.21,14.91-9.64,2.36,3.66c.03-3.5-.21-7.31-.74-11.27-2.11-15.84-8.11-28.12-13.4-27.41-5.29,.7-7.86,14.12-5.75,29.96Z"/>
            <path class="cls-80" d="M33.64,211.78c1.05,7.88,3.07,14.88,5.48,19.81l-2.92-5.11,14.9-9.63,2.33,3.6c.03-3.48-.21-7.27-.73-11.21-2.1-15.77-8.07-27.98-13.33-27.28-5.26,.7-7.82,14.05-5.72,29.81Z"/>
            <path class="cls-12" d="M33.69,211.77c1.05,7.84,3.05,14.8,5.45,19.71l-2.94-5,14.88-9.62,2.29,3.54c.03-3.46-.21-7.23-.73-11.15-2.09-15.69-8.03-27.84-13.26-27.14-5.23,.7-7.78,13.98-5.69,29.67Z"/>
            <path class="cls-222" d="M33.74,211.76c1.04,7.8,3.04,14.73,5.42,19.62l-2.96-4.9,14.87-9.61,2.25,3.48c.03-3.45-.2-7.2-.72-11.1-2.08-15.61-7.99-27.7-13.2-27-5.21,.69-7.74,13.91-5.66,29.52Z"/>
            <path class="cls-79" d="M33.78,211.76c1.03,7.76,3.02,14.65,5.4,19.52l-2.98-4.79,14.86-9.6,2.21,3.42c.03-3.43-.2-7.16-.72-11.04-2.07-15.53-7.95-27.56-13.13-26.87-5.18,.69-7.7,13.84-5.63,29.37Z"/>
            <path class="cls-49" d="M33.83,211.75c1.03,7.72,3.01,14.58,5.37,19.42l-3-4.69,14.84-9.59,2.18,3.36c.03-3.41-.2-7.12-.72-10.99-2.06-15.45-7.91-27.42-13.06-26.73-5.16,.69-7.67,13.77-5.61,29.22Z"/>
            <path class="cls-247" d="M33.88,211.74c1.02,7.69,2.99,14.51,5.34,19.32l-2.98-4.61,14.79-9.56,2.14,3.31c.03-3.39-.2-7.09-.71-10.93-2.05-15.37-7.87-27.28-12.99-26.6-5.13,.68-7.63,13.7-5.58,29.07Z"/>
            <path class="cls-15" d="M33.93,211.74c1.02,7.65,2.97,14.43,5.31,19.22l-2.94-4.54,14.71-9.51,2.1,3.25c.03-3.38-.2-7.05-.71-10.88-2.04-15.29-7.83-27.14-12.93-26.46-5.1,.68-7.59,13.63-5.55,28.92Z"/>
            <path class="cls-124" d="M33.97,211.73c1.01,7.61,2.96,14.36,5.29,19.12l-2.89-4.48,14.64-9.46,2.06,3.19c.03-3.36-.2-7.02-.71-10.82-2.03-15.21-7.79-27-12.86-26.32-5.08,.68-7.55,13.56-5.52,28.77Z"/>
            <path class="cls-112" d="M34.02,211.72c1.01,7.57,2.94,14.28,5.26,19.02l-2.85-4.41,14.56-9.41,2.02,3.13c.03-3.34-.2-6.98-.7-10.76-2.02-15.14-7.75-26.86-12.8-26.19-5.05,.67-7.51,13.49-5.49,28.62Z"/>
            <path class="cls-220" d="M34.07,211.72c1,7.53,2.93,14.21,5.23,18.92l-2.81-4.35,14.48-9.36,1.99,3.07c.03-3.32-.2-6.94-.7-10.71-2.01-15.06-7.7-26.72-12.73-26.05-5.02,.67-7.47,13.42-5.46,28.47Z"/>
            <path class="cls-91" d="M34.12,211.71c1,7.49,2.91,14.13,5.21,18.82l-2.77-4.28,14.41-9.31,1.95,3.01c.03-3.31-.2-6.91-.7-10.65-2-14.98-7.67-26.58-12.66-25.91-5,.67-7.43,13.35-5.43,28.32Z"/>
            <path class="cls-52" d="M34.17,211.71c.99,7.45,2.9,14.06,5.18,18.72l-2.73-4.22,14.33-9.27,1.91,2.96c.02-3.29-.2-6.87-.69-10.59-1.99-14.9-7.62-26.44-12.6-25.78-4.97,.66-7.39,13.28-5.41,28.17Z"/>
            <path class="cls-82" d="M34.21,211.7c.99,7.41,2.88,13.98,5.15,18.63l-2.68-4.15,14.26-9.22,1.87,2.9c.03-3.27-.19-6.83-.69-10.54-1.97-14.82-7.58-26.3-12.53-25.64-4.94,.66-7.35,13.21-5.38,28.03Z"/>
            <path class="cls-33" d="M34.26,211.69c.98,7.37,2.87,13.91,5.12,18.53l-2.64-4.09,14.18-9.17,1.83,2.84c.03-3.25-.19-6.8-.68-10.48-1.96-14.74-7.54-26.16-12.46-25.5-4.92,.66-7.31,13.14-5.35,27.88Z"/>
            <path class="cls-104" d="M34.31,211.69c.98,7.33,2.85,13.84,5.1,18.43l-2.6-4.02,14.11-9.12,1.8,2.78c.02-3.24-.19-6.76-.68-10.43-1.95-14.66-7.5-26.02-12.4-25.37-4.89,.65-7.27,13.07-5.32,27.73Z"/>
            <path class="cls-136" d="M34.36,211.68c.97,7.29,2.84,13.76,5.07,18.33l-2.56-3.96,14.03-9.07,1.76,2.72c.02-3.22-.19-6.72-.68-10.37-1.94-14.58-7.46-25.88-12.33-25.23-4.87,.65-7.24,13-5.29,27.58Z"/>
            <path class="cls-81" d="M34.4,211.67c.97,7.25,2.82,13.69,5.04,18.23l-2.52-3.89,13.95-9.02,1.72,2.66c.02-3.2-.19-6.69-.67-10.31-1.93-14.5-7.42-25.74-12.26-25.1-4.84,.64-7.2,12.93-5.26,27.43Z"/>
            <path class="cls-259" d="M34.45,211.67c.96,7.21,2.81,13.61,5.01,18.13l-2.47-3.83,13.88-8.97,1.68,2.6c.02-3.18-.19-6.65-.67-10.26-1.92-14.43-7.38-25.6-12.2-24.96-4.81,.64-7.16,12.86-5.23,27.28Z"/>
            <path class="cls-31" d="M34.5,211.66c.95,7.17,2.79,13.54,4.99,18.03l-2.43-3.76,13.8-8.92,1.65,2.55c.02-3.17-.19-6.62-.67-10.2-1.91-14.35-7.34-25.46-12.13-24.82-4.79,.64-7.12,12.79-5.21,27.13Z"/>
            <path class="cls-105" d="M34.55,211.65c.95,7.13,2.78,13.46,4.96,17.93l-2.39-3.7,13.73-8.87,1.61,2.49c.02-3.15-.19-6.58-.66-10.15-1.9-14.27-7.3-25.32-12.06-24.69-4.76,.63-7.08,12.72-5.18,26.98Z"/>
            <path class="cls-48" d="M34.59,211.65c.95,7.09,2.76,13.39,4.93,17.83l-2.35-3.63,13.65-8.82,1.57,2.43c.02-3.13-.19-6.54-.66-10.09-1.89-14.19-7.26-25.18-12-24.55-4.74,.63-7.04,12.64-5.15,26.83Z"/>
            <path class="cls-123" d="M34.64,211.64c.94,7.05,2.74,13.32,4.9,17.73l-2.31-3.57,13.57-8.78,1.53,2.37c.02-3.11-.18-6.51-.65-10.03-1.88-14.11-7.22-25.04-11.93-24.41-4.71,.63-7,12.57-5.12,26.68Z"/>
            <path class="cls-216" d="M34.69,211.64c.93,7.02,2.73,13.24,4.88,17.63l-2.26-3.5,13.5-8.73,1.49,2.31c.02-3.1-.18-6.47-.65-9.98-1.87-14.03-7.18-24.9-11.86-24.28-4.68,.62-6.96,12.5-5.09,26.54Z"/>
            <path class="cls-182" d="M34.74,211.63c.93,6.98,2.71,13.17,4.85,17.53l-2.22-3.44,13.42-8.68,1.46,2.25c.02-3.08-.18-6.43-.65-9.92-1.86-13.95-7.14-24.76-11.8-24.14-4.65,.62-6.92,12.43-5.06,26.39Z"/>
            <path class="cls-209" d="M34.78,211.62c.92,6.94,2.7,13.09,4.82,17.44l-2.18-3.37,13.35-8.63,1.42,2.2c.02-3.06-.18-6.4-.64-9.87-1.85-13.87-7.1-24.62-11.73-24-4.63,.62-6.88,12.36-5.03,26.24Z"/>
            <path class="cls-260" d="M34.83,211.62c.92,6.9,2.68,13.02,4.79,17.34l-2.14-3.31,13.27-8.58,1.38,2.14c.02-3.04-.18-6.36-.64-9.81-1.84-13.8-7.06-24.48-11.66-23.87-4.6,.61-6.84,12.29-5.01,26.09Z"/>
            <path class="cls-154" d="M34.88,211.61c.91,6.86,2.67,12.94,4.77,17.24l-2.09-3.24,13.19-8.53,1.34,2.08c.02-3.03-.18-6.32-.64-9.75-1.83-13.72-7.02-24.34-11.6-23.73-4.58,.61-6.8,12.22-4.98,25.94Z"/>
            <path class="cls-111" d="M34.93,211.6c.91,6.82,2.65,12.87,4.74,17.14l-2.05-3.18,13.12-8.48,1.31,2.02c.02-3.01-.18-6.29-.63-9.7-1.82-13.64-6.98-24.2-11.53-23.59-4.55,.61-6.77,12.15-4.95,25.79Z"/>
            <path class="cls-221" d="M34.97,211.6c.9,6.78,2.64,12.79,4.71,17.04l-2.01-3.11,13.04-8.43,1.27,1.96c.02-2.99-.18-6.25-.63-9.64-1.81-13.56-6.94-24.06-11.46-23.46-4.52,.6-6.73,12.08-4.92,25.64Z"/>
            <path class="cls-76" d="M35.02,211.59c.9,6.74,2.62,12.72,4.69,16.94l-1.97-3.05,12.97-8.38,1.23,1.9c.02-2.97-.18-6.22-.63-9.59-1.8-13.48-6.9-23.92-11.4-23.32-4.5,.6-6.69,12.01-4.89,25.49Z"/>
            <path class="cls-16" d="M35.07,211.58c.89,6.7,2.61,12.65,4.66,16.84l-1.93-2.98,12.89-8.33,1.19,1.84c.02-2.96-.18-6.18-.62-9.53-1.79-13.4-6.86-23.78-11.33-23.18-4.47,.6-6.65,11.94-4.86,25.34Z"/>
            <path class="cls-176" d="M35.12,211.58c.89,6.66,2.59,12.57,4.63,16.74l-1.88-2.92,12.81-8.28,1.15,1.79c.02-2.94-.17-6.14-.62-9.47-1.77-13.32-6.82-23.64-11.26-23.05-4.45,.59-6.61,11.87-4.83,25.19Z"/>
            <path class="cls-141" d="M35.16,211.57c.88,6.62,2.58,12.5,4.6,16.64l-1.84-2.85,12.74-8.24,1.12,1.73c.02-2.92-.17-6.11-.62-9.42-1.76-13.24-6.78-23.5-11.2-22.91-4.42,.59-6.57,11.8-4.81,25.04Z"/>
            <path class="cls-51" d="M35.21,211.57c.88,6.58,2.56,12.42,4.58,16.54l-1.8-2.79,12.66-8.19,1.08,1.67c.02-2.91-.17-6.07-.61-9.36-1.75-13.16-6.74-23.36-11.13-22.78-4.39,.59-6.53,11.73-4.78,24.9Z"/>
            <path class="cls-200" d="M35.26,211.56c.87,6.54,2.55,12.35,4.55,16.44l-1.76-2.72,12.59-8.14,1.04,1.61c.02-2.89-.17-6.03-.61-9.31-1.74-13.09-6.7-23.22-11.06-22.64-4.37,.58-6.49,11.66-4.75,24.75Z"/>
            <path class="cls-134" d="M35.31,211.55c.87,6.5,2.53,12.27,4.52,16.35l-1.72-2.66,12.51-8.09,1,1.55c.02-2.87-.17-6-.6-9.25-1.73-13.01-6.66-23.08-11-22.5-4.34,.58-6.45,11.59-4.72,24.6Z"/>
            <path class="cls-153" d="M35.36,211.55c.86,6.46,2.52,12.2,4.49,16.25l-1.67-2.59,12.44-8.04,.97,1.49c.02-2.85-.17-5.96-.6-9.19-1.72-12.93-6.62-22.94-10.93-22.37-4.31,.57-6.41,11.52-4.69,24.45Z"/>
            <path class="cls-211" d="M35.4,211.54c.86,6.42,2.5,12.13,4.47,16.15l-1.63-2.52,12.36-7.99,.93,1.44c.02-2.84-.17-5.92-.6-9.14-1.71-12.85-6.58-22.8-10.86-22.23-4.29,.57-6.37,11.45-4.66,24.3Z"/>
            <path class="cls-84" d="M35.45,211.53c.85,6.38,2.48,12.05,4.44,16.05l-1.59-2.46,12.28-7.94,.89,1.38c.02-2.82-.17-5.89-.59-9.08-1.7-12.77-6.54-22.66-10.8-22.09-4.26,.57-6.34,11.38-4.63,24.15Z"/>
            <path class="cls-42" d="M35.5,211.53c.85,6.35,2.47,11.98,4.41,15.95l-1.55-2.39,12.21-7.89,.85,1.32c.02-2.8-.17-5.85-.59-9.02-1.69-12.69-6.5-22.52-10.73-21.96-4.23,.56-6.3,11.31-4.61,24Z"/>
            <path class="cls-23" d="M35.55,211.52c.84,6.31,2.45,11.9,4.38,15.85l-1.51-2.33,12.13-7.84,.81,1.26c.02-2.78-.17-5.82-.59-8.97-1.68-12.61-6.45-22.38-10.66-21.82-4.21,.56-6.26,11.24-4.58,23.85Z"/>
            <path class="cls-67" d="M35.59,211.51c.84,6.27,2.44,11.83,4.36,15.75l-1.46-2.26,12.06-7.79,.78,1.2c.02-2.77-.16-5.78-.58-8.91-1.67-12.53-6.41-22.24-10.6-21.69-4.18,.56-6.22,11.17-4.55,23.7Z"/>
            <path class="cls-100" d="M35.64,211.51c.83,6.23,2.42,11.75,4.33,15.65l-1.42-2.2,8.15-5.27,3.91,6.05c.82-4.26,.91-10.01,.08-16.24-1.66-12.45-6.37-22.1-10.53-21.55-4.16,.55-6.18,11.1-4.52,23.55Z"/>
            <path class="cls-114" d="M35.69,211.5c.82,6.19,2.41,11.68,4.3,15.55l-1.38-2.13,8.1-5.24,3.85,5.96c.81-4.24,.9-9.95,.08-16.14-1.65-12.38-6.33-21.96-10.46-21.41-4.13,.55-6.14,11.03-4.49,23.41Z"/>
            <path class="cls-74" d="M35.74,211.5c.82,6.15,2.39,11.6,4.27,15.45l-1.34-2.07,8.05-5.2,3.8,5.87c.81-4.21,.9-9.89,.08-16.03-1.64-12.3-6.29-21.82-10.4-21.28-4.1,.55-6.1,10.96-4.46,23.26Z"/>
            <path class="cls-115" d="M35.78,211.49c.81,6.11,2.38,11.53,4.25,15.36l-1.3-2,8-5.17,3.74,5.78c.8-4.18,.89-9.82,.08-15.93-1.63-12.22-6.25-21.68-10.33-21.14-4.08,.54-6.06,10.89-4.43,23.11Z"/>
            <path class="cls-226" d="M35.83,211.48c.81,6.07,2.36,11.46,4.22,15.26l-1.25-1.94,7.95-5.14,3.68,5.69c.8-4.15,.89-9.76,.08-15.83-1.62-12.14-6.21-21.54-10.26-21-4.05,.54-6.02,10.82-4.4,22.96Z"/>
            <path class="cls-58" d="M35.88,211.48c.8,6.03,2.35,11.38,4.19,15.16l-1.21-1.87,7.89-5.1,3.62,5.6c.79-4.13,.88-9.7,.08-15.73-1.61-12.06-6.17-21.4-10.2-20.87-4.02,.54-5.98,10.75-4.38,22.81Z"/>
            <path class="cls-236" d="M35.93,211.47c.8,5.99,2.33,11.31,4.16,15.06l-1.17-1.81,7.84-5.07,3.56,5.51c.79-4.1,.88-9.63,.08-15.62-1.6-11.98-6.13-21.26-10.13-20.73-4,.53-5.95,10.68-4.35,22.66Z"/>
            <path class="cls-127" d="M35.98,211.46c.79,5.95,2.32,11.23,4.14,14.96l-1.13-1.74,7.79-5.04,3.51,5.42c.78-4.07,.87-9.57,.08-15.52-1.59-11.9-6.09-21.12-10.06-20.59-3.97,.53-5.9,10.61-4.32,22.51Z"/>
            <path class="cls-149" d="M36.02,211.46c.79,5.91,2.3,11.16,4.11,14.86l-1.08-1.68,7.74-5,3.45,5.34c.78-4.05,.86-9.51,.07-15.42-1.58-11.82-6.05-20.98-10-20.46-3.95,.53-5.87,10.54-4.29,22.36Z"/>
            <path class="cls-249" d="M36.07,211.45c.78,5.87,2.29,11.08,4.08,14.76l-1.04-1.61,7.69-4.97,3.39,5.25c.77-4.02,.86-9.44,.07-15.32-1.57-11.75-6.01-20.84-9.93-20.32-3.92,.52-5.83,10.47-4.26,22.21Z"/>
            <path class="cls-60" d="M36.12,211.45c.78,5.83,2.27,11.01,4.05,14.66l-1-1.55,7.64-4.94,3.33,5.16c.77-3.99,.85-9.38,.07-15.21-1.55-11.67-5.97-20.7-9.86-20.19-3.89,.52-5.79,10.4-4.23,22.06Z"/>
            <path class="cls-72" d="M36.17,211.44c.77,5.79,2.25,10.94,4.03,14.56l-.96-1.48,7.58-4.9,3.28,5.07c.76-3.97,.85-9.32,.07-15.11-1.54-11.59-5.93-20.56-9.8-20.05-3.87,.51-5.75,10.33-4.2,21.91Z"/>
            <path class="cls-229" d="M36.21,211.43c.77,5.76,2.24,10.86,4,14.46l-.92-1.42,7.53-4.87,3.22,4.98c.76-3.94,.84-9.25,.07-15.01-1.53-11.51-5.89-20.42-9.73-19.91-3.84,.51-5.71,10.26-4.18,21.77Z"/>
            <path class="cls-255" d="M36.26,211.43c.76,5.72,2.22,10.79,3.97,14.36l-.87-1.35,7.48-4.84,3.16,4.89c.75-3.91,.83-9.19,.07-14.9-1.52-11.43-5.85-20.28-9.66-19.78-3.81,.51-5.67,10.19-4.15,21.62Z"/>
            <path class="cls-116" d="M36.31,211.42c.76,5.68,2.21,10.71,3.95,14.27l-.83-1.29,7.43-4.8,3.1,4.8c.75-3.88,.83-9.12,.07-14.8-1.51-11.35-5.81-20.14-9.6-19.64-3.79,.5-5.63,10.12-4.12,21.47Z"/>
            <path class="cls-62" d="M36.36,211.41c.75,5.64,2.19,10.64,3.92,14.17l-.79-1.22,7.38-4.77,3.04,4.71c.74-3.86,.82-9.06,.07-14.7-1.5-11.27-5.77-20-9.53-19.5-3.76,.5-5.59,10.05-4.09,21.32Z"/>
            <path class="cls-96" d="M36.4,211.41c.75,5.6,2.18,10.56,3.89,14.07l-.75-1.16,7.33-4.74,2.99,4.62c.73-3.83,.82-9,.07-14.6-1.49-11.19-5.73-19.86-9.46-19.37-3.74,.5-5.55,9.98-4.06,21.17Z"/>
            <path class="cls-131" d="M36.45,211.4c.74,5.56,2.16,10.49,3.86,13.97l-.71-1.09,7.27-4.7,2.93,4.53c.73-3.8,.81-8.94,.07-14.49-1.48-11.11-5.69-19.72-9.4-19.23-3.71,.49-5.51,9.91-4.03,21.02Z"/>
            <path class="cls-140" d="M36.5,211.39c.74,5.52,2.15,10.41,3.84,13.87l-.66-1.03,7.22-4.67,2.87,4.44c.72-3.78,.8-8.87,.07-14.39-1.47-11.04-5.65-19.59-9.33-19.09-3.68,.49-5.47,9.83-4,20.87Z"/>
            <path class="cls-53" d="M36.55,211.39c.73,5.48,2.13,10.34,3.81,13.77l-.62-.96,7.17-4.64,2.81,4.35c.72-3.75,.8-8.81,.07-14.29-1.46-10.96-5.61-19.44-9.26-18.96-3.66,.49-5.44,9.76-3.98,20.72Z"/>
            <path class="cls-59" d="M36.59,211.38c.73,5.44,2.12,10.26,3.78,13.67l-.58-.9,7.12-4.6,2.75,4.26c.71-3.72,.79-8.74,.07-14.18-1.45-10.88-5.57-19.3-9.2-18.82-3.63,.48-5.4,9.69-3.95,20.57Z"/>
            <path class="cls-97" d="M36.64,211.38c.72,5.4,2.1,10.19,3.75,13.57l-.54-.83,7.07-4.57,2.7,4.17c.71-3.7,.79-8.68,.07-14.08-1.44-10.8-5.53-19.16-9.13-18.68-3.6,.48-5.36,9.62-3.92,20.42Z"/>
            <path class="cls-128" d="M36.69,211.37c.71,5.36,2.09,10.12,3.73,13.47l-.5-.77,7.02-4.54,2.64,4.08c.7-3.67,.78-8.62,.07-13.98-1.43-10.72-5.49-19.02-9.06-18.55-3.58,.48-5.32,9.55-3.89,20.27Z"/>
            <path class="cls-113" d="M36.74,211.36c.71,5.32,2.07,10.04,3.7,13.37l-.45-.7,6.96-4.5,2.58,3.99c.7-3.64,.78-8.56,.07-13.88-1.42-10.64-5.45-18.88-9-18.41-3.55,.47-5.28,9.48-3.86,20.13Z"/>
            <path class="cls-99" d="M36.78,211.36c.7,5.28,2.06,9.97,3.67,13.27l-.41-.64,6.91-4.47,2.52,3.9c.69-3.62,.77-8.49,.07-13.77-1.41-10.56-5.41-18.75-8.93-18.28-3.52,.47-5.24,9.41-3.83,19.98Z"/>
            <path class="cls-73" d="M36.83,211.35c.7,5.24,2.04,9.89,3.64,13.18l-.37-.57,6.86-4.44,2.47,3.81c.69-3.59,.77-8.43,.07-13.67-1.4-10.48-5.36-18.61-8.86-18.14-3.5,.47-5.2,9.34-3.8,19.83Z"/>
            <path class="cls-22" d="M36.88,211.34c.69,5.2,2.03,9.82,3.62,13.08l-.33-.51,6.81-4.4,2.41,3.72c.68-3.56,.76-8.37,.07-13.57-1.39-10.41-5.32-18.47-8.8-18-3.47,.46-5.16,9.27-3.78,19.68Z"/>
            <path class="cls-164" d="M36.93,211.34c.69,5.16,2.01,9.74,3.59,12.98l-.28-.44,6.76-4.37,2.35,3.63c.68-3.53,.75-8.3,.07-13.46-1.38-10.33-5.29-18.33-8.73-17.87-3.45,.46-5.12,9.2-3.75,19.53Z"/>
            <path class="cls-13" d="M36.97,211.33c.68,5.12,1.99,9.67,3.56,12.88l-.24-.38,6.71-4.34,2.29,3.54c.67-3.51,.75-8.24,.07-13.36-1.37-10.25-5.24-18.19-8.66-17.73-3.42,.46-5.08,9.13-3.72,19.38Z"/>
            <path class="cls-6" d="M37.02,211.32c1.36,10.17,5.2,18.05,8.6,17.59l-3.89-6.01,5.28-3.41,2.23,3.45c.67-3.48,.74-8.17,.06-13.26-1.35-10.17-5.2-18.05-8.6-17.59-3.39,.45-5.05,9.06-3.69,19.23Z"/>
            <path class="cls-165" d="M37.07,211.32c1.34,10.09,5.16,17.91,8.53,17.46l-3.82-5.9,5.24-3.39,2.18,3.37c.66-3.45,.74-8.11,.07-13.16-1.35-10.09-5.16-17.91-8.53-17.46-3.37,.45-5.01,8.99-3.66,19.08Z"/>
            <path class="cls-231" d="M37.12,211.31c1.33,10.01,5.12,17.77,8.46,17.32l-3.75-5.8,5.2-3.36,2.12,3.28c.66-3.43,.73-8.05,.06-13.05-1.33-10.01-5.12-17.77-8.46-17.32-3.34,.45-4.97,8.92-3.63,18.93Z"/>
            <path class="cls-163" d="M37.17,211.31c1.32,9.93,5.08,17.63,8.4,17.18l-3.68-5.69,5.16-3.33,2.06,3.19c.65-3.4,.72-7.98,.06-12.95-1.32-9.93-5.08-17.63-8.4-17.18-3.31,.44-4.93,8.85-3.6,18.78Z"/>
            <path class="cls-158" d="M37.21,211.3c1.31,9.85,5.04,17.49,8.33,17.05l-3.61-5.58,5.12-3.31,2,3.1c.65-3.37,.72-7.92,.06-12.85-1.31-9.85-5.04-17.49-8.33-17.05-3.29,.44-4.89,8.78-3.58,18.63Z"/>
            <path class="cls-180" d="M37.26,211.29c1.3,9.78,5,17.35,8.26,16.91l-3.53-5.47,5.08-3.28,1.94,3.01c.64-3.34,.71-7.86,.06-12.74-1.3-9.77-5-17.35-8.26-16.91-3.26,.43-4.85,8.71-3.55,18.49Z"/>
            <path class="cls-11" d="M37.31,211.29c1.29,9.7,4.96,17.21,8.2,16.78l-3.46-5.36,5.03-3.25,1.89,2.92c.64-3.32,.71-7.79,.06-12.64-1.29-9.7-4.96-17.21-8.2-16.78-3.23,.43-4.81,8.64-3.52,18.34Z"/>
            <path class="cls-77" d="M37.36,211.28c1.28,9.62,4.92,17.07,8.13,16.64l-3.39-5.25,4.99-3.23,1.83,2.83c.63-3.29,.7-7.73,.06-12.54-1.28-9.62-4.92-17.07-8.13-16.64-3.21,.43-4.77,8.57-3.49,18.19Z"/>
            <path class="cls-190" d="M37.4,211.27c1.27,9.54,4.88,16.93,8.06,16.5l-3.32-5.14,4.95-3.2,1.77,2.74c.63-3.26,.7-7.67,.06-12.44-1.27-9.54-4.88-16.93-8.06-16.5-3.18,.42-4.73,8.5-3.46,18.04Z"/>
            <path class="cls-240" d="M37.45,211.27c1.26,9.46,4.84,16.79,8,16.37l-3.25-5.03,4.91-3.18,1.71,2.65c.62-3.24,.69-7.6,.06-12.33-1.26-9.46-4.84-16.79-8-16.37-3.16,.42-4.69,8.43-3.43,17.89Z"/>
            <path class="cls-235" d="M37.5,211.26c1.25,9.38,4.8,16.65,7.93,16.23,3.13-.42,4.65-8.36,3.4-17.74-1.25-9.38-4.8-16.65-7.93-16.23-3.13,.42-4.65,8.36-3.4,17.74Z"/>
            <path class="cls-218" d="M37.55,211.25c1.24,9.3,4.76,16.51,7.86,16.09,3.1-.41,4.61-8.29,3.38-17.59-1.24-9.3-4.76-16.51-7.86-16.09-3.1,.41-4.62,8.29-3.38,17.59Z"/>
            <path class="cls-129" d="M37.59,211.25c1.23,9.22,4.72,16.37,7.8,15.96,3.08-.41,4.58-8.22,3.35-17.44-1.23-9.22-4.72-16.37-7.8-15.96-3.08,.41-4.58,8.22-3.35,17.44Z"/>
            <path class="cls-157" d="M37.64,211.24c1.22,9.14,4.68,16.23,7.73,15.82,3.05-.41,4.54-8.15,3.32-17.29-1.22-9.14-4.68-16.23-7.73-15.82-3.05,.41-4.54,8.15-3.32,17.29Z"/>
            <path class="cls-188" d="M37.69,211.24c1.21,9.07,4.64,16.09,7.66,15.68,3.02-.4,4.5-8.08,3.29-17.14-1.21-9.06-4.64-16.09-7.66-15.68-3.02,.4-4.5,8.08-3.29,17.14Z"/>
            <path class="cls-101" d="M37.74,211.23c1.2,8.99,4.6,15.95,7.6,15.55,3-.4,4.46-8.01,3.26-16.99-1.2-8.99-4.6-15.95-7.6-15.55-3,.4-4.46,8.01-3.26,16.99Z"/>
            <path class="cls-179" d="M37.78,211.22c1.19,8.91,4.56,15.81,7.53,15.41,2.97-.4,4.42-7.94,3.23-16.85-1.19-8.91-4.56-15.81-7.53-15.41s-4.42,7.94-3.23,16.85Z"/>
            <path class="cls-234" d="M37.83,211.22c1.18,8.83,4.52,15.67,7.46,15.28,2.95-.39,4.38-7.87,3.2-16.7-1.18-8.83-4.52-15.67-7.46-15.28-2.95,.39-4.38,7.87-3.2,16.7Z"/>
            <path class="cls-168" d="M37.88,211.21c1.17,8.75,4.48,15.53,7.4,15.14,2.92-.39,4.34-7.8,3.18-16.55-1.17-8.75-4.48-15.53-7.4-15.14-2.92,.39-4.34,7.8-3.17,16.55Z"/>
            <path class="cls-195" d="M37.93,211.2c1.16,8.67,4.44,15.39,7.33,15,2.89-.39,4.3-7.73,3.15-16.4-1.16-8.67-4.44-15.39-7.33-15-2.89,.39-4.3,7.73-3.15,16.4Z"/>
            <path class="cls-29" d="M37.97,211.2c1.14,8.59,4.4,15.25,7.26,14.87,2.87-.38,4.26-7.66,3.12-16.25-1.14-8.59-4.4-15.25-7.26-14.87-2.87,.38-4.26,7.66-3.12,16.25Z"/>
            <path class="cls-145" d="M38.02,211.19c1.13,8.51,4.36,15.11,7.2,14.73,2.84-.38,4.22-7.59,3.09-16.1-1.13-8.51-4.36-15.11-7.2-14.73-2.84,.38-4.22,7.59-3.09,16.1Z"/>
            <path class="cls-251" d="M38.07,211.19c1.13,8.43,4.32,14.97,7.13,14.59,2.81-.37,4.18-7.52,3.06-15.95-1.12-8.43-4.32-14.97-7.13-14.59-2.81,.38-4.18,7.52-3.06,15.95Z"/>
            <path class="cls-63" d="M38.12,211.18c1.11,8.36,4.28,14.83,7.06,14.46,2.79-.37,4.15-7.45,3.03-15.8-1.11-8.36-4.28-14.83-7.06-14.46-2.79,.37-4.15,7.45-3.03,15.8Z"/>
            <path class="cls-146" d="M38.17,211.17c1.1,8.28,4.24,14.69,7,14.32,2.76-.37,4.11-7.38,3-15.65-1.1-8.28-4.24-14.69-7-14.32-2.76,.37-4.11,7.38-3,15.65Z"/>
            <path class="cls-204" d="M38.21,211.17c1.09,8.2,4.2,14.55,6.93,14.18,2.74-.36,4.07-7.31,2.98-15.5-1.09-8.2-4.2-14.55-6.93-14.18-2.74,.36-4.07,7.31-2.97,15.5Z"/>
            <path class="cls-138" d="M38.26,211.16c1.08,8.12,4.16,14.41,6.87,14.05,2.71-.36,4.03-7.24,2.95-15.36-1.08-8.12-4.16-14.41-6.86-14.05-2.71,.36-4.03,7.24-2.95,15.36Z"/>
            <path class="cls-132" d="M38.31,211.15c1.07,8.04,4.11,14.27,6.8,13.91,2.68-.36,3.99-7.16,2.92-15.21-1.07-8.04-4.11-14.27-6.8-13.91-2.68,.36-3.99,7.17-2.92,15.21Z"/>
            <path class="cls-125" d="M38.36,211.15c1.06,7.96,4.07,14.13,6.73,13.78,2.66-.35,3.95-7.1,2.89-15.06-1.06-7.96-4.07-14.13-6.73-13.77-2.66,.35-3.95,7.1-2.89,15.06Z"/>
            <path class="cls-89" d="M38.4,211.14c1.05,7.88,4.03,13.99,6.66,13.64,2.63-.35,3.91-7.03,2.86-14.91-1.05-7.88-4.03-13.99-6.66-13.64-2.63,.35-3.91,7.02-2.86,14.91Z"/>
            <path class="cls-241" d="M38.45,211.13c1.04,7.8,3.99,13.85,6.6,13.5,2.6-.35,3.87-6.95,2.83-14.76-1.04-7.8-3.99-13.85-6.6-13.5-2.6,.35-3.87,6.95-2.83,14.76Z"/>
            <path class="cls-239" d="M38.5,211.13c1.03,7.72,3.95,13.71,6.53,13.37,2.58-.34,3.83-6.88,2.8-14.61-1.03-7.72-3.95-13.71-6.53-13.37-2.58,.34-3.83,6.88-2.8,14.61Z"/>
            <path class="cls-192" d="M38.55,211.12c1.02,7.65,3.91,13.57,6.46,13.23,2.55-.34,3.79-6.81,2.77-14.46-1.02-7.65-3.91-13.57-6.46-13.23-2.55,.34-3.79,6.81-2.77,14.46Z"/>
            <path class="cls-243" d="M38.59,211.11c1.01,7.57,3.87,13.43,6.4,13.09,2.53-.34,3.75-6.74,2.75-14.31-1.01-7.57-3.87-13.43-6.4-13.09-2.52,.34-3.75,6.74-2.75,14.31Z"/>
            <path class="cls-110" d="M38.64,211.11c1,7.49,3.83,13.29,6.33,12.96,2.5-.33,3.71-6.67,2.72-14.16-1-7.49-3.83-13.29-6.33-12.96-2.5,.33-3.72,6.67-2.72,14.16Z"/>
            <path class="cls-151" d="M38.69,211.1c.99,7.41,3.79,13.15,6.26,12.82,2.47-.33,3.68-6.6,2.69-14.01-.99-7.41-3.79-13.15-6.26-12.82-2.47,.33-3.68,6.6-2.69,14.01Z"/>
            <path class="cls-196" d="M38.74,211.1c.98,7.33,3.75,13.01,6.2,12.68,2.45-.33,3.64-6.53,2.66-13.86-.98-7.33-3.75-13.01-6.2-12.68-2.45,.33-3.64,6.53-2.66,13.86Z"/>
            <path class="cls-169" d="M38.78,211.09c.97,7.25,3.71,12.87,6.13,12.55,2.42-.32,3.6-6.46,2.63-13.72-.97-7.25-3.71-12.87-6.13-12.55-2.42,.32-3.6,6.46-2.63,13.71Z"/>
            <path class="cls-144" d="M38.83,211.08c.96,7.17,3.67,12.73,6.06,12.41,2.39-.32,3.56-6.39,2.6-13.57-.96-7.17-3.67-12.73-6.06-12.41-2.39,.32-3.56,6.39-2.6,13.57Z"/>
            <path class="cls-95" d="M38.88,211.08c.94,7.09,3.63,12.59,6,12.27,2.37-.32,3.52-6.32,2.57-13.42-.95-7.1-3.63-12.59-6-12.27-2.37,.32-3.52,6.32-2.57,13.42Z"/>
            <path class="cls-118" d="M38.93,211.07c.94,7.02,3.59,12.45,5.93,12.14,2.34-.31,3.48-6.25,2.55-13.27-.93-7.02-3.59-12.45-5.93-12.14-2.34,.31-3.48,6.25-2.55,13.27Z"/>
            <path class="cls-56" d="M38.98,211.06c.92,6.94,3.55,12.31,5.86,12,2.31-.31,3.44-6.18,2.52-13.12-.92-6.94-3.55-12.31-5.86-12-2.31,.31-3.44,6.18-2.52,13.12Z"/>
            <path class="cls-121" d="M39.02,211.06c.91,6.86,3.51,12.17,5.8,11.87,2.29-.31,3.4-6.11,2.49-12.97-.91-6.86-3.51-12.17-5.8-11.87-2.29,.3-3.4,6.11-2.49,12.97Z"/>
            <path class="cls-197" d="M39.07,211.05c.9,6.78,3.47,12.03,5.73,11.73,2.26-.3,3.36-6.04,2.46-12.82-.9-6.78-3.47-12.03-5.73-11.73-2.26,.3-3.36,6.04-2.46,12.82Z"/>
            <path class="cls-223" d="M39.12,211.05c.89,6.7,3.43,11.89,5.66,11.59,2.24-.3,3.32-5.97,2.43-12.67-.89-6.7-3.43-11.89-5.67-11.59-2.24,.3-3.32,5.97-2.43,12.67Z"/>
            <path class="cls-162" d="M39.17,211.04c.88,6.62,3.39,11.75,5.6,11.46,2.21-.29,3.29-5.9,2.4-12.52-.88-6.62-3.39-11.75-5.6-11.46-2.21,.29-3.29,5.9-2.4,12.52Z"/>
            <path class="cls-193" d="M39.21,211.03c.87,6.54,3.35,11.61,5.53,11.32,2.18-.29,3.25-5.83,2.37-12.37-.87-6.54-3.35-11.61-5.53-11.32-2.18,.29-3.25,5.83-2.37,12.37Z"/>
            <path class="cls-137" d="M39.26,211.03c.86,6.46,3.31,11.47,5.47,11.18,2.16-.29,3.21-5.76,2.35-12.22-.86-6.46-3.31-11.47-5.46-11.18-2.16,.29-3.21,5.76-2.35,12.22Z"/>
            <path class="cls-250" d="M39.31,211.02c.85,6.39,3.27,11.33,5.4,11.05,2.13-.28,3.17-5.69,2.32-12.07-.85-6.38-3.27-11.33-5.4-11.05-2.13,.28-3.17,5.69-2.32,12.07Z"/>
            <path class="cls-122" d="M39.36,211.01c.84,6.31,3.23,11.19,5.33,10.91,2.1-.28,3.13-5.62,2.29-11.93-.84-6.31-3.23-11.19-5.33-10.91-2.1,.28-3.13,5.62-2.29,11.93Z"/>
            <path class="cls-224" d="M39.4,211.01c.83,6.23,3.19,11.05,5.26,10.77,2.08-.28,3.09-5.55,2.26-11.78-.83-6.23-3.19-11.05-5.26-10.77-2.08,.28-3.09,5.55-2.26,11.78Z"/>
            <path class="cls-142" d="M39.45,211c.82,6.15,3.15,10.91,5.2,10.64,2.05-.27,3.05-5.48,2.23-11.63-.82-6.15-3.15-10.91-5.2-10.64-2.05,.27-3.05,5.48-2.23,11.63Z"/>
            <path class="cls-186" d="M39.5,210.99c.81,6.07,3.11,10.77,5.13,10.5,2.03-.27,3.01-5.41,2.2-11.48-.81-6.07-3.11-10.77-5.13-10.5-2.03,.27-3.01,5.41-2.2,11.48Z"/>
            <path class="cls-177" d="M39.55,210.99c.8,5.99,3.07,10.63,5.06,10.37,2-.27,2.97-5.34,2.17-11.33-.8-5.99-3.07-10.63-5.07-10.36-2,.27-2.97,5.34-2.17,11.33Z"/>
            <path class="cls-201" d="M39.59,210.98c.79,5.91,3.03,10.49,5,10.23,1.97-.26,2.93-5.27,2.15-11.18-.79-5.91-3.03-10.49-5-10.23-1.97,.26-2.93,5.27-2.15,11.18Z"/>
            <path class="cls-228" d="M39.64,210.98c.78,5.83,2.99,10.35,4.93,10.09,1.95-.26,2.89-5.2,2.12-11.03-.78-5.83-2.99-10.35-4.93-10.09-1.95,.26-2.89,5.2-2.12,11.03Z"/>
            <path class="cls-27" d="M39.69,210.97c.77,5.75,2.94,10.21,4.87,9.96,1.92-.26,2.85-5.13,2.09-10.88-.77-5.75-2.94-10.21-4.86-9.96-1.92,.26-2.86,5.13-2.09,10.88Z"/>
            <path class="cls-26" d="M39.74,210.96c.76,5.68,2.9,10.07,4.8,9.82,1.89-.25,2.82-5.06,2.06-10.73-.76-5.68-2.91-10.07-4.8-9.82-1.89,.25-2.82,5.06-2.06,10.73Z"/>
            <path class="cls-214" d="M39.78,210.96c.75,5.6,2.86,9.93,4.73,9.68,1.87-.25,2.78-4.99,2.03-10.58-.75-5.6-2.86-9.93-4.73-9.68-1.87,.25-2.78,4.99-2.03,10.58Z"/>
            <path class="cls-86" d="M39.83,210.95c.74,5.52,2.82,9.79,4.66,9.55,1.84-.25,2.74-4.92,2-10.44-.74-5.52-2.82-9.79-4.67-9.55-1.84,.25-2.74,4.92-2,10.44Z"/>
            <path class="cls-92" d="M39.88,210.94c.72,5.44,2.78,9.65,4.6,9.41,1.81-.24,2.7-4.85,1.97-10.29-.73-5.44-2.78-9.65-4.6-9.41-1.81,.24-2.7,4.85-1.97,10.29Z"/>
            <path class="cls-10" d="M39.93,210.94c.71,5.36,2.74,9.51,4.53,9.27,1.79-.24,2.66-4.78,1.95-10.14-.71-5.36-2.74-9.51-4.53-9.27-1.79,.24-2.66,4.78-1.94,10.14Z"/>
            <path class="cls-225" d="M39.98,210.93c.7,5.28,2.7,9.37,4.47,9.14,1.76-.23,2.62-4.71,1.92-9.99-.7-5.28-2.7-9.37-4.46-9.14-1.76,.23-2.62,4.71-1.92,9.99Z"/>
            <path class="cls-44" d="M40.02,210.92c.69,5.2,2.66,9.23,4.4,9,1.74-.23,2.58-4.64,1.89-9.84-.69-5.2-2.66-9.23-4.4-9-1.74,.23-2.58,4.64-1.89,9.84Z"/>
            <path class="cls-71" d="M40.07,210.92c.68,5.12,2.62,9.09,4.33,8.86,1.71-.23,2.54-4.57,1.86-9.69-.68-5.12-2.62-9.09-4.33-8.87-1.71,.23-2.54,4.57-1.86,9.69Z"/>
            <path class="cls-183" d="M40.12,210.91c.67,5.04,2.58,8.95,4.27,8.73,1.68-.22,2.5-4.5,1.83-9.54-.67-5.04-2.58-8.95-4.27-8.73-1.68,.22-2.5,4.5-1.83,9.54Z"/>
            <path class="cls-103" d="M40.17,210.91c.66,4.97,2.54,8.81,4.2,8.59,1.66-.22,2.46-4.43,1.8-9.39-.66-4.97-2.54-8.81-4.2-8.59-1.66,.22-2.46,4.43-1.8,9.39Z"/>
            <path class="cls-75" d="M40.21,210.9c.65,4.89,2.5,8.67,4.13,8.46,1.63-.22,2.43-4.36,1.77-9.24-.65-4.89-2.5-8.67-4.13-8.46-1.63,.22-2.42,4.36-1.77,9.24Z"/>
            <path class="cls-210" d="M40.26,210.89c.64,4.81,2.46,8.53,4.07,8.32,1.6-.21,2.39-4.28,1.75-9.09-.64-4.81-2.46-8.53-4.07-8.32-1.61,.21-2.39,4.29-1.75,9.09Z"/>
            <path class="cls-126" d="M40.31,210.89c.63,4.73,2.42,8.39,4,8.18,1.58-.21,2.35-4.22,1.72-8.94-.63-4.73-2.42-8.39-4-8.18-1.58,.21-2.35,4.22-1.72,8.94Z"/>
            <path class="cls-175" d="M40.36,210.88c.62,4.65,2.38,8.25,3.93,8.05,1.55-.21,2.31-4.15,1.69-8.8-.62-4.65-2.38-8.25-3.93-8.05-1.55,.21-2.31,4.14-1.69,8.8Z"/>
            <path class="cls-147" d="M40.4,210.87c.61,4.57,2.34,8.11,3.87,7.91,1.53-.2,2.27-4.07,1.66-8.65-.61-4.57-2.34-8.11-3.86-7.91-1.53,.2-2.27,4.07-1.66,8.65Z"/>
            <path class="cls-189" d="M40.45,210.87c.6,4.49,2.3,7.97,3.8,7.77,1.5-.2,2.23-4,1.63-8.5-.6-4.49-2.3-7.97-3.8-7.77-1.5,.2-2.23,4-1.63,8.5Z"/>
            <path class="cls-24" d="M40.5,210.86c.59,4.41,2.26,7.83,3.73,7.64,1.47-.2,2.19-3.93,1.6-8.35-.59-4.41-2.26-7.83-3.73-7.64-1.47,.2-2.19,3.93-1.6,8.35Z"/>
            <path class="cls-117" d="M40.55,210.86c.58,4.34,2.22,7.69,3.67,7.5,1.45-.19,2.15-3.86,1.57-8.2-.58-4.34-2.22-7.69-3.67-7.5-1.45,.19-2.15,3.86-1.57,8.2Z"/>
            <path class="cls-245" d="M40.59,210.85c.57,4.26,2.18,7.55,3.6,7.36,1.42-.19,2.11-3.79,1.54-8.05-.57-4.26-2.18-7.55-3.6-7.36-1.42,.19-2.11,3.79-1.54,8.05Z"/>
            <path class="cls-215" d="M40.64,210.84c.56,4.18,2.14,7.41,3.53,7.23,1.39-.19,2.07-3.72,1.52-7.9-.56-4.18-2.14-7.41-3.53-7.23-1.39,.19-2.07,3.72-1.52,7.9Z"/>
            <path class="cls-17" d="M40.69,210.84c.55,4.1,2.1,7.27,3.47,7.09,1.37-.18,2.03-3.65,1.49-7.75-.55-4.1-2.1-7.27-3.47-7.09-1.37,.18-2.03,3.65-1.49,7.75Z"/>
            <path class="cls-90" d="M40.74,210.83c.54,4.02,2.06,7.13,3.4,6.96,1.34-.18,1.99-3.58,1.46-7.6-.54-4.02-2.06-7.13-3.4-6.96-1.34,.18-1.99,3.58-1.46,7.6Z"/>
            <path class="cls-39" d="M40.78,210.82c.53,3.94,2.02,6.99,3.33,6.82,1.31-.18,1.96-3.51,1.43-7.45-.52-3.94-2.02-6.99-3.33-6.82-1.32,.18-1.96,3.51-1.43,7.45Z"/>
            <path class="cls-34" d="M40.83,210.82c.51,3.86,1.98,6.85,3.27,6.68,1.29-.17,1.92-3.44,1.4-7.31-.51-3.86-1.98-6.85-3.27-6.68-1.29,.17-1.92,3.44-1.4,7.3Z"/>
            <path class="cls-43" d="M40.88,210.81c.5,3.78,1.94,6.71,3.2,6.55,1.26-.17,1.88-3.37,1.37-7.16-.5-3.78-1.94-6.71-3.2-6.55-1.26,.17-1.88,3.37-1.37,7.16Z"/>
            <path class="cls-172" d="M40.93,210.8c.49,3.7,1.9,6.57,3.13,6.41,1.24-.16,1.84-3.3,1.34-7.01-.49-3.7-1.9-6.58-3.13-6.41-1.24,.16-1.84,3.3-1.34,7.01Z"/>
            <path class="cls-61" d="M40.98,210.8c.48,3.63,1.86,6.44,3.07,6.27,1.21-.16,1.8-3.23,1.32-6.86-.48-3.63-1.86-6.43-3.06-6.27-1.21,.16-1.8,3.23-1.32,6.86Z"/>
            <path class="cls-244" d="M41.02,210.79c.47,3.55,1.82,6.3,3,6.14,1.18-.16,1.76-3.16,1.29-6.71-.47-3.55-1.82-6.29-3-6.14-1.18,.16-1.76,3.16-1.29,6.71Z"/>
            <path class="cls-9" d="M41.07,210.78c.46,3.47,1.77,6.16,2.93,6,1.16-.15,1.72-3.09,1.26-6.56-.46-3.47-1.78-6.15-2.93-6-1.16,.15-1.72,3.09-1.26,6.56Z"/>
            <path class="cls-246" d="M41.12,210.78c.45,3.39,1.73,6.02,2.87,5.86,1.13-.15,1.68-3.02,1.23-6.41-.45-3.39-1.73-6.02-2.87-5.86-1.13,.15-1.68,3.02-1.23,6.41Z"/>
            <path class="cls-38" d="M41.17,210.77c.44,3.31,1.69,5.88,2.8,5.73,1.1-.15,1.64-2.95,1.2-6.26-.44-3.31-1.69-5.88-2.8-5.73-1.1,.15-1.64,2.95-1.2,6.26Z"/>
            <path class="cls-248" d="M41.21,210.77c.43,3.23,1.65,5.74,2.73,5.59,1.08-.14,1.6-2.88,1.17-6.11-.43-3.23-1.65-5.74-2.73-5.59-1.08,.14-1.6,2.88-1.17,6.11Z"/>
            <path class="cls-87" d="M41.26,210.76c.42,3.15,1.61,5.59,2.67,5.46,1.05-.14,1.56-2.81,1.14-5.96-.42-3.15-1.61-5.6-2.67-5.46-1.05,.14-1.56,2.81-1.14,5.96Z"/>
            <path class="cls-36" d="M41.31,210.75c.41,3.07,1.57,5.46,2.6,5.32,1.03-.14,1.53-2.74,1.11-5.81-.41-3.07-1.57-5.46-2.6-5.32-1.03,.14-1.53,2.74-1.12,5.81Z"/>
            <path class="cls-202" d="M41.36,210.75c.4,3,1.53,5.32,2.53,5.18,1-.13,1.49-2.67,1.09-5.67-.4-3-1.53-5.32-2.53-5.18-1,.13-1.49,2.67-1.09,5.66Z"/>
            <path class="cls-83" d="M41.4,210.74c.39,2.92,1.49,5.18,2.47,5.05,.97-.13,1.45-2.6,1.06-5.52-.39-2.92-1.49-5.18-2.47-5.05-.97,.13-1.45,2.6-1.06,5.52Z"/>
            <path class="cls-155" d="M41.45,210.73c.38,2.84,1.45,5.04,2.4,4.91,.95-.13,1.41-2.53,1.03-5.37-.38-2.84-1.45-5.04-2.4-4.91-.95,.13-1.41,2.53-1.03,5.37Z"/>
            <path class="cls-171" d="M41.5,210.73c.37,2.76,1.41,4.9,2.33,4.77,.92-.12,1.37-2.46,1-5.22-.37-2.76-1.41-4.9-2.33-4.77-.92,.12-1.37,2.46-1,5.22Z"/>
            <path class="cls-143" d="M41.55,210.72c.36,2.68,1.37,4.76,2.27,4.64,.89-.12,1.33-2.39,.97-5.07-.36-2.68-1.37-4.76-2.27-4.64-.89,.12-1.33,2.39-.97,5.07Z"/>
            <path class="cls-156" d="M41.59,210.71c.35,2.6,1.33,4.62,2.2,4.5,.87-.12,1.29-2.32,.94-4.92-.35-2.6-1.33-4.62-2.2-4.5-.87,.12-1.29,2.32-.94,4.92Z"/>
            <path class="cls-14" d="M41.64,210.71c.34,2.52,1.29,4.48,2.13,4.36,.84-.11,1.25-2.25,.92-4.77-.34-2.52-1.29-4.48-2.13-4.36-.84,.11-1.25,2.25-.92,4.77Z"/>
            <path class="cls-32" d="M41.69,210.7c.33,2.44,1.25,4.34,2.07,4.23,.82-.11,1.21-2.18,.89-4.62-.32-2.44-1.25-4.34-2.06-4.23-.82,.11-1.21,2.18-.89,4.62Z"/>
            <path class="cls-203" d="M41.74,210.7c.32,2.36,1.21,4.2,2,4.09,.79-.11,1.17-2.11,.86-4.47-.32-2.36-1.21-4.2-2-4.09-.79,.11-1.17,2.11-.86,4.47Z"/>
            <path class="cls-187" d="M41.79,210.69c.3,2.29,1.17,4.06,1.93,3.96,.76-.1,1.13-2.04,.83-4.32-.31-2.29-1.17-4.06-1.93-3.96-.76,.1-1.13,2.04-.83,4.32Z"/>
            <path class="cls-150" d="M41.83,210.68c.29,2.21,1.13,3.92,1.87,3.82,.74-.1,1.1-1.97,.8-4.17-.29-2.21-1.13-3.92-1.87-3.82-.74,.1-1.1,1.97-.8,4.17Z"/>
            <path class="cls-102" d="M41.88,210.68c.28,2.13,1.09,3.78,1.8,3.68,.71-.09,1.06-1.9,.77-4.02-.28-2.13-1.09-3.78-1.8-3.68-.71,.09-1.06,1.9-.77,4.03Z"/>
            <path class="cls-212" d="M41.93,210.67c.27,2.05,1.05,3.64,1.73,3.55,.68-.09,1.02-1.83,.74-3.88-.27-2.05-1.05-3.64-1.73-3.55-.68,.09-1.02,1.83-.74,3.88Z"/>
            <path class="cls-41" d="M41.98,210.66c.26,1.97,1.01,3.5,1.67,3.41,.66-.09,.98-1.76,.72-3.73-.26-1.97-1.01-3.5-1.67-3.41-.66,.09-.98,1.76-.71,3.73Z"/>
            <path class="cls-174" d="M42.02,210.66c.25,1.89,.97,3.36,1.6,3.27,.63-.08,.94-1.69,.69-3.58-.25-1.89-.97-3.36-1.6-3.27-.63,.08-.94,1.69-.69,3.58Z"/>
            <path class="cls-257" d="M42.07,210.65c.24,1.81,.93,3.22,1.53,3.14,.6-.08,.9-1.62,.66-3.43-.24-1.81-.93-3.22-1.53-3.14-.6,.08-.9,1.62-.66,3.43Z"/>
            <path class="cls-199" d="M42.12,210.65c.23,1.73,.89,3.08,1.47,3,.58-.08,.86-1.55,.63-3.28-.23-1.73-.89-3.08-1.47-3-.58,.08-.86,1.55-.63,3.28Z"/>
            <path class="cls-217" d="M42.17,210.64c.22,1.66,.85,2.94,1.4,2.86,.55-.07,.82-1.48,.6-3.13-.22-1.66-.85-2.94-1.4-2.86-.55,.07-.82,1.48-.6,3.13Z"/>
            <path class="cls-35" d="M42.21,210.63c.21,1.58,.81,2.8,1.33,2.73,.53-.07,.78-1.4,.57-2.98-.21-1.58-.81-2.8-1.33-2.73-.53,.07-.78,1.4-.57,2.98Z"/>
            <path class="cls-20" d="M42.26,210.63c.2,1.5,.77,2.66,1.27,2.59,.5-.07,.74-1.34,.54-2.83-.2-1.5-.77-2.66-1.27-2.59-.5,.07-.74,1.33-.54,2.83Z"/>
            <path class="cls-194" d="M42.31,210.62c.19,1.42,.73,2.52,1.2,2.45,.47-.06,.7-1.26,.51-2.68-.19-1.42-.73-2.52-1.2-2.45-.47,.06-.7,1.27-.51,2.68Z"/>
            <path class="cls-78" d="M42.36,210.61c.18,1.34,.69,2.38,1.13,2.32,.45-.06,.66-1.19,.49-2.53-.18-1.34-.69-2.38-1.13-2.32-.45,.06-.66,1.19-.49,2.53Z"/>
            <path class="cls-54" d="M42.4,210.61c.17,1.26,.65,2.24,1.07,2.18,.42-.06,.63-1.12,.46-2.38-.17-1.26-.65-2.24-1.07-2.18-.42,.06-.63,1.12-.46,2.39Z"/>
            <path class="cls-25" d="M42.45,210.6c.16,1.18,.61,2.1,1,2.05,.39-.05,.59-1.05,.43-2.24-.16-1.18-.6-2.1-1-2.05-.39,.05-.59,1.05-.43,2.24Z"/>
            <path class="cls-254" d="M42.5,210.59c.15,1.1,.56,1.96,.93,1.91,.37-.05,.55-.98,.4-2.09-.15-1.1-.56-1.96-.93-1.91-.37,.05-.55,.98-.4,2.09Z"/>
            <path class="cls-184" d="M42.55,210.59c.14,1.02,.52,1.82,.87,1.77,.34-.05,.51-.91,.37-1.94-.14-1.02-.52-1.82-.87-1.77-.34,.05-.51,.91-.37,1.94Z"/>
            <path class="cls-19" d="M42.59,210.58c.13,.95,.48,1.68,.8,1.64,.32-.04,.47-.84,.34-1.79-.13-.95-.48-1.68-.8-1.64-.31,.04-.47,.84-.34,1.79Z"/>
            <path class="cls-148" d="M42.64,210.58c.12,.87,.44,1.54,.73,1.5,.29-.04,.43-.77,.31-1.64-.12-.87-.44-1.54-.73-1.5-.29,.04-.43,.77-.31,1.64Z"/>
            <path class="cls-206" d="M42.69,210.57c.1,.79,.4,1.4,.67,1.36,.26-.03,.39-.7,.29-1.49-.11-.79-.4-1.4-.67-1.36-.26,.04-.39,.7-.29,1.49Z"/>
            <path class="cls-178" d="M42.74,210.56c.09,.71,.36,1.26,.6,1.23,.24-.03,.35-.63,.26-1.34-.09-.71-.36-1.26-.6-1.23-.24,.03-.35,.63-.26,1.34Z"/>
            <path class="cls-219" d="M42.78,210.56c.08,.63,.32,1.12,.53,1.09,.21-.03,.31-.56,.23-1.19-.08-.63-.32-1.12-.53-1.09-.21,.03-.31,.56-.23,1.19Z"/>
            <path class="cls-55" d="M42.83,210.55c.07,.55,.28,.98,.47,.96,.18-.03,.27-.49,.2-1.04-.07-.55-.28-.98-.47-.95-.18,.02-.27,.49-.2,1.04Z"/>
            <path class="cls-170" d="M42.88,210.54c.06,.47,.24,.84,.4,.82,.16-.02,.23-.42,.17-.89-.06-.47-.24-.84-.4-.82-.16,.02-.23,.42-.17,.89Z"/>
            <path class="cls-40" d="M42.93,210.54c.05,.39,.2,.7,.33,.68,.13-.02,.2-.35,.14-.75-.05-.39-.2-.7-.33-.68-.13,.02-.2,.35-.14,.75Z"/>
            <path class="cls-107" d="M42.98,210.53c.04,.31,.16,.56,.27,.55,.11-.01,.16-.28,.11-.6-.04-.32-.16-.56-.27-.55-.1,.01-.16,.28-.11,.6Z"/>
            <path class="cls-139" d="M43.02,210.52c.03,.24,.12,.42,.2,.41,.08-.01,.12-.21,.09-.45-.03-.24-.12-.42-.2-.41-.08,.01-.12,.21-.09,.45Z"/>
            <path class="cls-227" d="M43.07,210.52c.02,.16,.08,.28,.13,.27,.05,0,.08-.14,.06-.3-.02-.16-.08-.28-.13-.27-.05,0-.08,.14-.06,.3Z"/>
            <path class="cls-208" d="M43.12,210.51c.01,.08,.04,.14,.07,.14,.03,0,.04-.07,.03-.15-.01-.08-.04-.14-.07-.14-.03,0-.04,.07-.03,.15Z"/>
          </g>
        </g>
        <path class="cls-5" d="M25.23,156.75C26.26,141.92,.62,110.22,.26,99.49c-.22-6.49-1.2-24.25,2.88-41.76l3.54,21.18s15.48,23.95,15.57,35.94c.09,11.99,33.38,39.77,33.38,39.77L176.29,53.61l.73,.63-21.74,35.96c-32.49,33.72-51.78,57.59-92.71,59.93,0,0,7.62,20.27-1.19,30.35-8.82,10.08-7.1,33.07-7.1,33.07l-14.31,1.58s-17.94-12.5-14.74-58.39Z"/>
        <path class="cls-30" d="M198.48,73.69c-9.11-11.23-135.3,94.73-120.06,112.21-3.55,1.81-7.26-3.92-7.35-7.69-.06-2.48-4.4-4.4-6.08-6.24-2.18-2.39-4.06-10.65-7.07-11.78-1.47-.55-6.01-1.16-9.85-6.15-12.68-16.49,103.43-123.44,124.01-110.67,5.58,3.46,4.12,8.39,5.9,10.45,1.8,2.07,5.03,1.93,8.48,4.58,3.9,3.01,5.12,10.11,7.84,10.47,3.92,.52,4.35,1.45,4.17,4.84Z"/>
        <path class="cls-45" d="M133.47,87.31c5.43,6.14-3.63,23.01-20.23,37.69-16.6,14.68-34.45,21.61-39.88,15.47-5.43-6.14,3.63-23.01,20.23-37.69,16.6-14.68,34.45-21.61,39.88-15.47Z"/>
        <g>
          <path class="cls-94" d="M23.69,213c-3.36,12.22,3.82,24.84,16.04,28.2,12.22,3.36,24.84-3.82,28.2-16.04,3.36-12.22-3.82-24.84-16.04-28.2s-24.84,3.82-28.2,16.04Z"/>
          <path class="cls-47" d="M23.69,213c-3.36,12.22,3.82,24.84,16.04,28.2,12.22,3.36,24.84-3.82,28.2-16.04,3.36-12.22-3.82-24.84-16.04-28.2s-24.84,3.82-28.2,16.04Z"/>
          <path class="cls-46" d="M32.75,210.82c-2.57,9.37,2.93,19.04,12.3,21.62,9.37,2.57,19.04-2.93,21.62-12.29,2.58-9.37-2.93-19.04-12.3-21.62-9.37-2.57-19.04,2.93-21.62,12.3Z"/>
        </g>
        <g>
          <g>
            <path class="cls-4" d="M120.65,84.38c4,7.39,23.46,4.61,43.45-6.22,19.99-10.83,32.96-25.6,28.96-32.99-4-7.39-23.46-4.61-43.45,6.22-19.99,10.83-32.96,25.6-28.96,32.99Z"/>
            <path class="cls-1" d="M45.81,184.1c6.81,4.92,23.13-6.03,36.44-24.47,13.31-18.43,18.58-37.37,11.77-42.29-6.81-4.92-23.13,6.03-36.44,24.47-13.31,18.43-18.58,37.37-11.77,42.29Z"/>
            <path class="cls-2" d="M130.81,79.68c2.88,7.9,22.53,8,43.89,.22,21.37-7.78,36.36-20.49,33.48-28.38-2.87-7.9-22.53-8-43.89-.22-21.37,7.78-36.36,20.49-33.48,28.38Z"/>
          </g>
          <path class="cls-173" d="M197.48,80.14c-13.02-14.93-134.34,88.28-119.1,105.76-3.55,1.81-7.26-3.92-7.35-7.69-.06-2.48-4.4-4.4-6.08-6.24-2.18-2.39-4.06-10.65-7.07-11.78-1.47-.55-6.01-1.16-9.85-6.15-12.68-16.49,103.43-123.44,124.01-110.67,5.58,3.46,4.12,8.39,5.9,10.45,1.8,2.07,5.03,1.93,8.48,4.58,3.9,3.01,5.12,10.11,7.84,10.47,3.92,.52,3.23,6.16,3.22,11.29Z"/>
        </g>
      </g>
    </g>
  </g>
</svg>